  0
SECTION
  2
HEADER
  9
$ACADVER
  1
AC1009
  9
$DWGCODEPAGE
  3
ansi_1252
  9
$INSBASE
 10
0.0
 20
0.0
 30
0.0
  9
$EXTMIN
 10
1.000000E+20
 20
1.000000E+20
 30
1.000000E+20
  9
$EXTMAX
 10
-1.000000E+20
 20
-1.000000E+20
 30
-1.000000E+20
  9
$LIMMIN
 10
0.0
 20
0.0
  9
$LIMMAX
 10
12.0
 20
9.0
  9
$ORTHOMODE
 70
     0
  9
$REGENMODE
 70
     1
  9
$FILLMODE
 70
     1
  9
$QTEXTMODE
 70
     0
  9
$MIRRTEXT
 70
     1
  9
$DRAGMODE
 70
     2
  9
$LTSCALE
 40
1.0
  9
$OSMODE
 70
    37
  9
$ATTMODE
 70
     1
  9
$TEXTSIZE
 40
0.2
  9
$TRACEWID
 40
0.05
  9
$TEXTSTYLE
  7
STANDARD
  9
$CLAYER
  8
0
  9
$CELTYPE
  6
BYBLOCK
  9
$CECOLOR
 62
   256
  9
$DIMSCALE
 40
1.0
  9
$DIMASZ
 40
0.18
  9
$DIMEXO
 40
0.0625
  9
$DIMDLI
 40
0.38
  9
$DIMRND
 40
0.0
  9
$DIMDLE
 40
0.0
  9
$DIMEXE
 40
0.18
  9
$DIMTP
 40
0.0
  9
$DIMTM
 40
0.0
  9
$DIMTXT
 40
0.18
  9
$DIMCEN
 40
0.09
  9
$DIMTSZ
 40
0.0
  9
$DIMTOL
 70
     0
  9
$DIMLIM
 70
     0
  9
$DIMTIH
 70
     1
  9
$DIMTOH
 70
     1
  9
$DIMSE1
 70
     0
  9
$DIMSE2
 70
     0
  9
$DIMTAD
 70
     0
  9
$DIMZIN
 70
     0
  9
$DIMBLK
  1

  9
$DIMASO
 70
     1
  9
$DIMSHO
 70
     1
  9
$DIMPOST
  1

  9
$DIMAPOST
  1

  9
$DIMALT
 70
     0
  9
$DIMALTD
 70
     2
  9
$DIMALTF
 40
25.4
  9
$DIMLFAC
 40
1.0
  9
$DIMTOFL
 70
     0
  9
$DIMTVP
 40
0.0
  9
$DIMTIX
 70
     0
  9
$DIMSOXD
 70
     0
  9
$DIMSAH
 70
     0
  9
$DIMBLK1
  1

  9
$DIMBLK2
  1

  9
$DIMSTYLE
  2
STANDARD
  9
$DIMCLRD
 70
     0
  9
$DIMCLRE
 70
     0
  9
$DIMCLRT
 70
     0
  9
$DIMTFAC
 40
1.0
  9
$DIMGAP
 40
0.09
  9
$LUNITS
 70
     2
  9
$LUPREC
 70
     4
  9
$SKETCHINC
 40
0.1
  9
$FILLETRAD
 40
0.5
  9
$AUNITS
 70
     0
  9
$AUPREC
 70
     0
  9
$MENU
  1
.
  9
$ELEVATION
 40
0.0
  9
$PELEVATION
 40
0.0
  9
$THICKNESS
 40
0.0
  9
$LIMCHECK
 70
     0
  9
$CHAMFERA
 40
0.5
  9
$CHAMFERB
 40
0.5
  9
$SKPOLY
 70
     0
  9
$TDCREATE
 40
2460458.489770347
  9
$TDUPDATE
 40
2460458.489770359
  9
$TDINDWG
 40
0.0000000116
  9
$TDUSRTIMER
 40
0.0000000116
  9
$USRTIMER
 70
     1
  9
$ANGBASE
 50
0.0
  9
$ANGDIR
 70
     0
  9
$PDMODE
 70
     0
  9
$PDSIZE
 40
0.0
  9
$PLINEWID
 40
0.0
  9
$COORDS
 70
     1
  9
$SPLFRAME
 70
     0
  9
$SPLINETYPE
 70
     6
  9
$SPLINESEGS
 70
     8
  9
$ATTDIA
 70
     0
  9
$ATTREQ
 70
     1
  9
$HANDLING
 70
     1
  9
$HANDSEED
  5
4E5
  9
$SURFTAB1
 70
     6
  9
$SURFTAB2
 70
     6
  9
$SURFTYPE
 70
     6
  9
$SURFU
 70
     6
  9
$SURFV
 70
     6
  9
$UCSNAME
  2

  9
$UCSORG
 10
0.0
 20
0.0
 30
0.0
  9
$UCSXDIR
 10
1.0
 20
0.0
 30
0.0
  9
$UCSYDIR
 10
0.0
 20
1.0
 30
0.0
  9
$PUCSNAME
  2

  9
$PUCSORG
 10
0.0
 20
0.0
 30
0.0
  9
$PUCSXDIR
 10
1.0
 20
0.0
 30
0.0
  9
$PUCSYDIR
 10
0.0
 20
1.0
 30
0.0
  9
$USERI1
 70
     0
  9
$USERI2
 70
     0
  9
$USERI3
 70
     0
  9
$USERI4
 70
     0
  9
$USERI5
 70
     0
  9
$USERR1
 40
0.0
  9
$USERR2
 40
0.0
  9
$USERR3
 40
0.0
  9
$USERR4
 40
0.0
  9
$USERR5
 40
0.0
  9
$WORLDVIEW
 70
     1
  9
$SHADEDGE
 70
     3
  9
$SHADEDIF
 70
    70
  9
$TILEMODE
 70
     1
  9
$MAXACTVP
 70
    64
  9
$PLIMCHECK
 70
     0
  9
$PEXTMIN
 10
1.000000E+20
 20
1.000000E+20
 30
1.000000E+20
  9
$PEXTMAX
 10
-1.000000E+20
 20
-1.000000E+20
 30
-1.000000E+20
  9
$PLIMMIN
 10
0.0
 20
0.0
  9
$PLIMMAX
 10
12.0
 20
9.0
  9
$UNITMODE
 70
     0
  9
$VISRETAIN
 70
     1
  9
$PLINEGEN
 70
     0
  9
$PSLTSCALE
 70
     1
  0
ENDSEC
  0
SECTION
  2
TABLES
  0
TABLE
  2
VPORT
 70
     1
  0
VPORT
  2
*ACTIVE
 70
     0
 10
0.0
 20
0.0
 11
1.0
 21
1.0
 12
10.429907
 22
4.5
 13
0.0
 23
0.0
 14
0.5
 24
0.5
 15
0.5
 25
0.5
 16
0.0
 26
0.0
 36
1.0
 17
0.0
 27
0.0
 37
0.0
 40
9.0
 41
1.972973
 42
50.0
 43
0.0
 44
0.0
 50
0.0
 51
0.0
 71
     0
 72
   100
 73
     1
 74
     3
 75
     0
 76
     0
 77
     0
 78
     0
  0
ENDTAB
  0
TABLE
  2
LTYPE
 70
     1
  0
LTYPE
  2
CONTINUOUS
 70
     0
  3
Solid line
 72
    65
 73
     0
 40
0.0
  0
ENDTAB
  0
TABLE
  2
LAYER
 70
    22
  0
LAYER
  2
0
 70
     0
 62
     7
  6
CONTINUOUS
  0
LAYER
  2
PS03-CO
 70
     0
 62
    -7
  6
CONTINUOUS
  0
LAYER
  2
PS03-LP
 70
     0
 62
    -7
  6
CONTINUOUS
  0
LAYER
  2
PS03-LI
 70
     0
 62
    -7
  6
CONTINUOUS
  0
LAYER
  2
PS03-AS
 70
     0
 62
    -7
  6
CONTINUOUS
  0
LAYER
  2
PS03-AU
 70
     0
 62
    -7
  6
CONTINUOUS
  0
LAYER
  2
PS02-CO
 70
     0
 62
     7
  6
CONTINUOUS
  0
LAYER
  2
PS02-LI
 70
     0
 62
     7
  6
CONTINUOUS
  0
LAYER
  2
PS02-LP
 70
     0
 62
     7
  6
CONTINUOUS
  0
LAYER
  2
PS02-AS
 70
     0
 62
     7
  6
CONTINUOUS
  0
LAYER
  2
PS02-AU
 70
     0
 62
     7
  6
CONTINUOUS
  0
LAYER
  2
PS01-CO
 70
     0
 62
    -7
  6
CONTINUOUS
  0
LAYER
  2
PS01-LP
 70
     0
 62
    -7
  6
CONTINUOUS
  0
LAYER
  2
PS01-LI
 70
     0
 62
    -7
  6
CONTINUOUS
  0
LAYER
  2
PS01-AS
 70
     0
 62
    -7
  6
CONTINUOUS
  0
LAYER
  2
PS01-AU
 70
     0
 62
    -7
  6
CONTINUOUS
  0
LAYER
  2
PG-CO
 70
     0
 62
    -7
  6
CONTINUOUS
  0
LAYER
  2
PG-LF
 70
     0
 62
    -7
  6
CONTINUOUS
  0
LAYER
  2
PG-LI
 70
     0
 62
    -7
  6
CONTINUOUS
  0
LAYER
  2
PG-LP
 70
     0
 62
    -7
  6
CONTINUOUS
  0
LAYER
  2
PG-AS
 70
     0
 62
    -7
  6
CONTINUOUS
  0
LAYER
  2
PG-AA
 70
     0
 62
    -7
  6
CONTINUOUS
  0
ENDTAB
  0
TABLE
  2
STYLE
 70
     1
  0
STYLE
  2
STANDARD
 70
     0
 40
0.0
 41
1.0
 50
0.0
 71
     0
 42
0.2
  3
txt
  4

  0
ENDTAB
  0
TABLE
  2
VIEW
 70
     0
  0
ENDTAB
  0
TABLE
  2
UCS
 70
     0
  0
ENDTAB
  0
TABLE
  2
APPID
 70
     1
  0
APPID
  2
ACAD
 70
     0
  0
ENDTAB
  0
TABLE
  2
DIMSTYLE
 70
     1
  0
DIMSTYLE
  2
STANDARD
 70
     0
  3

  4

  5

  6

  7

 40
1.0
 41
0.18
 42
0.0625
 43
0.38
 44
0.18
 45
0.0
 46
0.0
 47
0.0
 48
0.0
140
0.18
141
0.09
142
0.0
143
25.4
144
1.0
145
0.0
146
1.0
147
0.09
 71
     0
 72
     0
 73
     1
 74
     1
 75
     0
 76
     0
 77
     0
 78
     0
170
     0
171
     2
172
     0
173
     0
174
     0
175
     0
176
     0
177
     0
178
     0
  0
ENDTAB
  0
ENDSEC
  0
SECTION
  2
BLOCKS
  0
BLOCK
  8
0
  2
$MODEL_SPACE
 70
     0
 10
0.0
 20
0.0
 30
0.0
  3
$MODEL_SPACE
  1

  0
ENDBLK
  5
35A
  8
0
  0
BLOCK
 67
     1
  8
0
  2
$PAPER_SPACE
 70
     0
 10
0.0
 20
0.0
 30
0.0
  3
$PAPER_SPACE
  1

  0
ENDBLK
  5
35C
 67
     1
  8
0
  0
ENDSEC
  0
SECTION
  2
ENTITIES
  0
TEXT
  5
21
  8
PG-AA
 10
352926.95
 20
4795868.91
 30
0.0
 40
0.4
  1
P
 72
     1
 11
352926.95
 21
4795868.91
 31
0.0
 73
     3
  0
TEXT
  5
22
  8
PG-AS
 10
352926.95
 20
4795868.91
 30
0.0
 40
0.4
  1
300
 72
     1
 11
352926.95
 21
4795868.91
 31
0.0
 73
     1
  0
TEXT
  5
23
  8
PG-AA
 10
352928.12
 20
4795860.29
 30
0.0
 40
0.4
  1
P
 72
     1
 11
352928.12
 21
4795860.29
 31
0.0
 73
     3
  0
TEXT
  5
24
  8
PG-AS
 10
352928.12
 20
4795860.29
 30
0.0
 40
0.4
  1
69
 72
     1
 11
352928.12
 21
4795860.29
 31
0.0
 73
     1
  0
TEXT
  5
25
  8
PG-AA
 10
352928.12
 20
4795853.08
 30
0.0
 40
0.4
  1
P
 72
     1
 11
352928.12
 21
4795853.08
 31
0.0
 73
     3
  0
TEXT
  5
26
  8
PG-AS
 10
352928.12
 20
4795853.08
 30
0.0
 40
0.4
  1
53
 72
     1
 11
352928.12
 21
4795853.08
 31
0.0
 73
     1
  0
TEXT
  5
27
  8
PG-AA
 10
352928.35
 20
4795845.86
 30
0.0
 40
0.4
  1
P
 72
     1
 11
352928.35
 21
4795845.86
 31
0.0
 73
     3
  0
TEXT
  5
28
  8
PG-AS
 10
352928.35
 20
4795845.86
 30
0.0
 40
0.4
  1
69
 72
     1
 11
352928.35
 21
4795845.86
 31
0.0
 73
     1
  0
TEXT
  5
29
  8
PG-AA
 10
352928.03
 20
4795839.41
 30
0.0
 40
0.4
  1
P
 72
     1
 11
352928.03
 21
4795839.41
 31
0.0
 73
     3
  0
TEXT
  5
2A
  8
PG-AS
 10
352928.03
 20
4795839.41
 30
0.0
 40
0.4
  1
53
 72
     1
 11
352928.03
 21
4795839.41
 31
0.0
 73
     1
  0
TEXT
  5
2B
  8
PG-AA
 10
352928.26
 20
4795832.66
 30
0.0
 40
0.4
  1
P
 72
     1
 11
352928.26
 21
4795832.66
 31
0.0
 73
     3
  0
TEXT
  5
2C
  8
PG-AS
 10
352928.26
 20
4795832.66
 30
0.0
 40
0.4
  1
69
 72
     1
 11
352928.26
 21
4795832.66
 31
0.0
 73
     1
  0
TEXT
  5
2D
  8
PG-AA
 10
352929.19
 20
4795825.21
 30
0.0
 40
0.4
  1
P
 72
     1
 11
352929.19
 21
4795825.21
 31
0.0
 73
     3
  0
TEXT
  5
2E
  8
PG-AS
 10
352929.19
 20
4795825.21
 30
0.0
 40
0.4
  1
307
 72
     1
 11
352929.19
 21
4795825.21
 31
0.0
 73
     1
  0
TEXT
  5
2F
  8
PG-AA
 10
352937.87
 20
4795872.53
 30
0.0
 40
0.4
  1
-I+II
 72
     1
 11
352937.87
 21
4795872.53
 31
0.0
 73
     3
  0
TEXT
  5
30
  8
PG-AS
 10
352937.87
 20
4795872.53
 30
0.0
 40
0.4
  1
74
 72
     1
 11
352937.87
 21
4795872.53
 31
0.0
 73
     1
  0
TEXT
  5
31
  8
PG-AA
 10
352937.59
 20
4795857.99
 30
0.0
 40
0.4
  1
-I+II
 72
     1
 11
352937.59
 21
4795857.99
 31
0.0
 73
     3
  0
TEXT
  5
32
  8
PG-AS
 10
352937.59
 20
4795857.99
 30
0.0
 40
0.4
  1
74
 72
     1
 11
352937.59
 21
4795857.99
 31
0.0
 73
     1
  0
TEXT
  5
33
  8
PG-AA
 10
352938.31
 20
4795845.04
 30
0.0
 40
0.4
  1
-I+II
 72
     1
 11
352938.31
 21
4795845.04
 31
0.0
 73
     3
  0
TEXT
  5
34
  8
PG-AS
 10
352938.31
 20
4795845.04
 30
0.0
 40
0.4
  1
74
 72
     1
 11
352938.31
 21
4795845.04
 31
0.0
 73
     1
  0
TEXT
  5
35
  8
PG-AA
 10
352939.17
 20
4795831.55
 30
0.0
 40
0.4
  1
-I+II
 72
     1
 11
352939.17
 21
4795831.55
 31
0.0
 73
     3
  0
TEXT
  5
36
  8
PG-AS
 10
352939.17
 20
4795831.55
 30
0.0
 40
0.4
  1
74
 72
     1
 11
352939.17
 21
4795831.55
 31
0.0
 73
     1
  0
TEXT
  5
37
  8
PG-AA
 10
352940.3
 20
4795866.88
 30
0.0
 40
0.4
  1
-I+II
 72
     1
 11
352940.3
 21
4795866.88
 31
0.0
 73
     3
  0
TEXT
  5
38
  8
PG-AS
 10
352940.3
 20
4795866.88
 30
0.0
 40
0.4
  1
74
 72
     1
 11
352940.3
 21
4795866.88
 31
0.0
 73
     1
  0
TEXT
  5
39
  8
PG-AA
 10
352939.96
 20
4795852.64
 30
0.0
 40
0.4
  1
-I+II
 72
     1
 11
352939.96
 21
4795852.64
 31
0.0
 73
     3
  0
TEXT
  5
3A
  8
PG-AS
 10
352939.96
 20
4795852.64
 30
0.0
 40
0.4
  1
74
 72
     1
 11
352939.96
 21
4795852.64
 31
0.0
 73
     1
  0
TEXT
  5
3B
  8
PG-AA
 10
352941.22
 20
4795839.68
 30
0.0
 40
0.4
  1
-I+II
 72
     1
 11
352941.22
 21
4795839.68
 31
0.0
 73
     3
  0
TEXT
  5
3C
  8
PG-AS
 10
352941.22
 20
4795839.68
 30
0.0
 40
0.4
  1
74
 72
     1
 11
352941.22
 21
4795839.68
 31
0.0
 73
     1
  0
TEXT
  5
3D
  8
PG-AA
 10
352942.81
 20
4795872.56
 30
0.0
 40
0.4
  1
-I+I
 72
     1
 11
352942.81
 21
4795872.56
 31
0.0
 73
     3
  0
TEXT
  5
3E
  8
PG-AS
 10
352942.81
 20
4795872.56
 30
0.0
 40
0.4
  1
3
 72
     1
 11
352942.81
 21
4795872.56
 31
0.0
 73
     1
  0
TEXT
  5
3F
  8
PG-AA
 10
352951.88
 20
4795864.72
 30
0.0
 40
0.4
  1
P
 72
     1
 11
352951.88
 21
4795864.72
 31
0.0
 73
     3
  0
TEXT
  5
40
  8
PG-AS
 10
352951.88
 20
4795864.72
 30
0.0
 40
0.4
  1
84
 72
     1
 11
352951.88
 21
4795864.72
 31
0.0
 73
     1
  0
TEXT
  5
41
  8
PG-AA
 10
352943.87
 20
4795858.72
 30
0.0
 40
0.4
  1
-I+I
 72
     1
 11
352943.87
 21
4795858.72
 31
0.0
 73
     3
  0
TEXT
  5
42
  8
PG-AS
 10
352943.87
 20
4795858.72
 30
0.0
 40
0.4
  1
3
 72
     1
 11
352943.87
 21
4795858.72
 31
0.0
 73
     1
  0
TEXT
  5
43
  8
PG-AA
 10
352950.62
 20
4795849.89
 30
0.0
 40
0.4
  1
P
 72
     1
 11
352950.62
 21
4795849.89
 31
0.0
 73
     3
  0
TEXT
  5
44
  8
PG-AS
 10
352950.62
 20
4795849.89
 30
0.0
 40
0.4
  1
91
 72
     1
 11
352950.62
 21
4795849.89
 31
0.0
 73
     1
  0
TEXT
  5
45
  8
PG-AA
 10
352944.41
 20
4795845.73
 30
0.0
 40
0.4
  1
-I+I
 72
     1
 11
352944.41
 21
4795845.73
 31
0.0
 73
     3
  0
TEXT
  5
46
  8
PG-AS
 10
352944.41
 20
4795845.73
 30
0.0
 40
0.4
  1
3
 72
     1
 11
352944.41
 21
4795845.73
 31
0.0
 73
     1
  0
TEXT
  5
47
  8
PG-AA
 10
352950.25
 20
4795870.07
 30
0.0
 40
0.4
  1
P
 72
     1
 11
352950.25
 21
4795870.07
 31
0.0
 73
     3
  0
TEXT
  5
48
  8
PG-AS
 10
352950.25
 20
4795870.07
 30
0.0
 40
0.4
  1
48
 72
     1
 11
352950.25
 21
4795870.07
 31
0.0
 73
     1
  0
TEXT
  5
49
  8
PG-AA
 10
352945.09
 20
4795832.62
 30
0.0
 40
0.4
  1
-I+I
 72
     1
 11
352945.09
 21
4795832.62
 31
0.0
 73
     3
  0
TEXT
  5
4A
  8
PG-AS
 10
352945.09
 20
4795832.62
 30
0.0
 40
0.4
  1
3
 72
     1
 11
352945.09
 21
4795832.62
 31
0.0
 73
     1
  0
TEXT
  5
4B
  8
PG-AA
 10
352945.23
 20
4795867.33
 30
0.0
 40
0.4
  1
-I+I
 72
     1
 11
352945.23
 21
4795867.33
 31
0.0
 73
     3
  0
TEXT
  5
4C
  8
PG-AS
 10
352945.23
 20
4795867.33
 30
0.0
 40
0.4
  1
3
 72
     1
 11
352945.23
 21
4795867.33
 31
0.0
 73
     1
  0
TEXT
  5
4D
  8
PG-AA
 10
352953.51
 20
4795859.13
 30
0.0
 40
0.4
  1
P
 72
     1
 11
352953.51
 21
4795859.13
 31
0.0
 73
     3
  0
TEXT
  5
4E
  8
PG-AS
 10
352953.51
 20
4795859.13
 30
0.0
 40
0.4
  1
80
 72
     1
 11
352953.51
 21
4795859.13
 31
0.0
 73
     1
  0
TEXT
  5
4F
  8
PG-AA
 10
352946.12
 20
4795853.78
 30
0.0
 40
0.4
  1
-I+I
 72
     1
 11
352946.12
 21
4795853.78
 31
0.0
 73
     3
  0
TEXT
  5
50
  8
PG-AS
 10
352946.12
 20
4795853.78
 30
0.0
 40
0.4
  1
3
 72
     1
 11
352946.12
 21
4795853.78
 31
0.0
 73
     1
  0
TEXT
  5
51
  8
PG-AA
 10
352950.5
 20
4795842.49
 30
0.0
 40
0.4
  1
P
 72
     1
 11
352950.5
 21
4795842.49
 31
0.0
 73
     3
  0
TEXT
  5
52
  8
PG-AS
 10
352950.5
 20
4795842.49
 30
0.0
 40
0.4
  1
92
 72
     1
 11
352950.5
 21
4795842.49
 31
0.0
 73
     1
  0
TEXT
  5
53
  8
PG-AA
 10
352946.89
 20
4795840.3
 30
0.0
 40
0.4
  1
-I+I
 72
     1
 11
352946.89
 21
4795840.3
 31
0.0
 73
     3
  0
TEXT
  5
54
  8
PG-AS
 10
352946.89
 20
4795840.3
 30
0.0
 40
0.4
  1
3
 72
     1
 11
352946.89
 21
4795840.3
 31
0.0
 73
     1
  0
TEXT
  5
55
  8
PG-AA
 10
352966.06
 20
4795871.02
 30
0.0
 40
0.4
  1
P
 72
     1
 11
352966.06
 21
4795871.02
 31
0.0
 73
     3
  0
TEXT
  5
56
  8
PG-AS
 10
352966.06
 20
4795871.02
 30
0.0
 40
0.4
  1
410
 72
     1
 11
352966.06
 21
4795871.02
 31
0.0
 73
     1
  0
TEXT
  5
57
  8
PG-AA
 10
352954.81
 20
4795847.61
 30
0.0
 40
0.4
  1
PI
 72
     1
 11
352954.81
 21
4795847.61
 31
0.0
 73
     3
  0
TEXT
  5
58
  8
PG-AS
 10
352954.81
 20
4795847.61
 30
0.0
 40
0.4
  1
18
 72
     1
 11
352954.81
 21
4795847.61
 31
0.0
 73
     1
  0
LINE
  5
59
  8
PG-LI
 10
352932.7185
 20
4795866.2655
 30
0.0
 11
352923.868
 21
4795862.0955
 31
0.0
  0
POLYLINE
  5
5A
  8
PG-LP
 66
     1
 10
0.0
 20
0.0
 30
0.0
  0
VERTEX
  5
3A2
  8
PG-LP
 10
352923.868
 20
4795862.0955
 30
0.0
  0
VERTEX
  5
3A3
  8
PG-LP
 10
352922.178
 20
4795892.946
 30
0.0
  0
VERTEX
  5
3A4
  8
PG-LP
 10
352922.1385
 20
4795894.646
 30
0.0
  0
VERTEX
  5
3A5
  8
PG-LP
 10
352922.218
 20
4795893.646
 30
0.0
  0
VERTEX
  5
3A6
  8
PG-LP
 10
352923.488
 20
4795886.956
 30
0.0
  0
VERTEX
  5
3A7
  8
PG-LP
 10
352927.8885
 20
4795878.2955
 30
0.0
  0
VERTEX
  5
3A8
  8
PG-LP
 10
352946.979
 20
4795884.4955
 30
0.0
  0
VERTEX
  5
3A9
  8
PG-LP
 10
352951.549
 20
4795874.2455
 30
0.0
  0
VERTEX
  5
3AA
  8
PG-LP
 10
352952.939
 20
4795874.8355
 30
0.0
  0
SEQEND
  5
3A1
  8
PG-LP
  0
LINE
  5
65
  8
PG-LP
 10
352924.228
 20
4795855.4155
 30
0.0
 11
352923.868
 21
4795862.0955
 31
0.0
  0
LINE
  5
66
  8
PG-LI
 10
352930.838
 20
4795858.5255
 30
0.0
 11
352924.228
 21
4795855.4155
 31
0.0
  0
LINE
  5
67
  8
PG-LP
 10
352924.598
 20
4795848.735
 30
0.0
 11
352924.228
 21
4795855.4155
 31
0.0
  0
LINE
  5
68
  8
PG-LI
 10
352933.488
 20
4795852.925
 30
0.0
 11
352924.598
 21
4795848.735
 31
0.0
  0
LINE
  5
69
  8
PG-LP
 10
352924.958
 20
4795842.045
 30
0.0
 11
352924.598
 21
4795848.735
 31
0.0
  0
LINE
  5
6A
  8
PG-LI
 10
352931.608
 20
4795845.185
 30
0.0
 11
352924.958
 21
4795842.045
 31
0.0
  0
LINE
  5
6B
  8
PG-LP
 10
352925.328
 20
4795835.365
 30
0.0
 11
352924.958
 21
4795842.045
 31
0.0
  0
LINE
  5
6C
  8
PG-LI
 10
352934.258
 20
4795839.575
 30
0.0
 11
352925.328
 21
4795835.365
 31
0.0
  0
LINE
  5
6D
  8
PG-LP
 10
352925.688
 20
4795828.685
 30
0.0
 11
352925.328
 21
4795835.365
 31
0.0
  0
LINE
  5
6E
  8
PG-LI
 10
352932.378
 20
4795831.835
 30
0.0
 11
352925.688
 21
4795828.685
 31
0.0
  0
POLYLINE
  5
6F
  8
PG-LP
 66
     1
 10
0.0
 20
0.0
 30
0.0
  0
VERTEX
  5
3AC
  8
PG-LP
 10
352964.129
 20
4795846.805
 30
0.0
  0
VERTEX
  5
3AD
  8
PG-LP
 10
352968.679
 20
4795838.745
 30
0.0
  0
VERTEX
  5
3AE
  8
PG-LP
 10
352959.379
 20
4795835.525
 30
0.0
  0
VERTEX
  5
3AF
  8
PG-LP
 10
352958.1685
 20
4795834.935
 30
0.0
  0
VERTEX
  5
3B0
  8
PG-LP
 10
352949.8385
 20
4795830.755
 30
0.0
  0
VERTEX
  5
3B1
  8
PG-LP
 10
352937.418
 20
4795824.855
 30
0.0
  0
VERTEX
  5
3B2
  8
PG-LP
 10
352926.248
 20
4795818.465
 30
0.0
  0
VERTEX
  5
3B3
  8
PG-LP
 10
352925.688
 20
4795828.685
 30
0.0
  0
SEQEND
  5
3AB
  8
PG-LP
  0
POLYLINE
  5
79
  8
PG-LI
 66
     1
 10
0.0
 20
0.0
 30
0.0
  0
VERTEX
  5
3B5
  8
PG-LI
 10
352935.3685
 20
4795860.6655
 30
0.0
  0
VERTEX
  5
3B6
  8
PG-LI
 10
352933.1085
 20
4795859.5955
 30
0.0
  0
VERTEX
  5
3B7
  8
PG-LI
 10
352930.838
 20
4795858.5255
 30
0.0
  0
SEQEND
  5
3B4
  8
PG-LI
  0
POLYLINE
  5
7E
  8
PG-LI
 66
     1
 10
0.0
 20
0.0
 30
0.0
  0
VERTEX
  5
3B9
  8
PG-LI
 10
352930.838
 20
4795858.5255
 30
0.0
  0
VERTEX
  5
3BA
  8
PG-LI
 10
352931.868
 20
4795856.3655
 30
0.0
  0
VERTEX
  5
3BB
  8
PG-LI
 10
352932.208
 20
4795855.6355
 30
0.0
  0
SEQEND
  5
3B8
  8
PG-LI
  0
POLYLINE
  5
83
  8
PG-LI
 66
     1
 10
0.0
 20
0.0
 30
0.0
  0
VERTEX
  5
3BD
  8
PG-LI
 10
352942.6385
 20
4795874.3155
 30
0.0
  0
VERTEX
  5
3BE
  8
PG-LI
 10
352941.2985
 20
4795877.1655
 30
0.0
  0
VERTEX
  5
3BF
  8
PG-LI
 10
352932.3385
 20
4795872.9455
 30
0.0
  0
VERTEX
  5
3C0
  8
PG-LI
 10
352930.0785
 20
4795871.8855
 30
0.0
  0
VERTEX
  5
3C1
  8
PG-LI
 10
352930.0785
 20
4795871.8755
 30
0.0
  0
VERTEX
  5
3C2
  8
PG-LI
 10
352931.0985
 20
4795869.7055
 30
0.0
  0
VERTEX
  5
3C3
  8
PG-LI
 10
352931.4385
 20
4795868.9855
 30
0.0
  0
SEQEND
  5
3BC
  8
PG-LI
  0
LINE
  5
8C
  8
PG-LI
 10
352931.4385
 20
4795868.9855
 30
0.0
 11
352932.7185
 21
4795866.2655
 31
0.0
  0
POLYLINE
  5
8D
  8
PG-LI
 66
     1
 10
0.0
 20
0.0
 30
0.0
  0
VERTEX
  5
3C5
  8
PG-LI
 10
352936.1285
 20
4795847.315
 30
0.0
  0
VERTEX
  5
3C6
  8
PG-LI
 10
352933.868
 20
4795846.245
 30
0.0
  0
VERTEX
  5
3C7
  8
PG-LI
 10
352931.608
 20
4795845.185
 30
0.0
  0
SEQEND
  5
3C4
  8
PG-LI
  0
POLYLINE
  5
92
  8
PG-LI
 66
     1
 10
0.0
 20
0.0
 30
0.0
  0
VERTEX
  5
3C9
  8
PG-LI
 10
352931.608
 20
4795845.185
 30
0.0
  0
VERTEX
  5
3CA
  8
PG-LI
 10
352932.638
 20
4795843.015
 30
0.0
  0
VERTEX
  5
3CB
  8
PG-LI
 10
352932.978
 20
4795842.285
 30
0.0
  0
SEQEND
  5
3C8
  8
PG-LI
  0
LINE
  5
97
  8
PG-LI
 10
352932.208
 20
4795855.6355
 30
0.0
 11
352933.488
 21
4795852.925
 31
0.0
  0
POLYLINE
  5
98
  8
PG-LI
 66
     1
 10
0.0
 20
0.0
 30
0.0
  0
VERTEX
  5
3CD
  8
PG-LI
 10
352936.898
 20
4795833.965
 30
0.0
  0
VERTEX
  5
3CE
  8
PG-LI
 10
352934.638
 20
4795832.905
 30
0.0
  0
VERTEX
  5
3CF
  8
PG-LI
 10
352932.378
 20
4795831.835
 30
0.0
  0
SEQEND
  5
3CC
  8
PG-LI
  0
POLYLINE
  5
9D
  8
PG-LI
 66
     1
 10
0.0
 20
0.0
 30
0.0
  0
VERTEX
  5
3D1
  8
PG-LI
 10
352932.378
 20
4795831.835
 30
0.0
  0
VERTEX
  5
3D2
  8
PG-LI
 10
352933.398
 20
4795829.665
 30
0.0
  0
VERTEX
  5
3D3
  8
PG-LI
 10
352933.738
 20
4795828.945
 30
0.0
  0
VERTEX
  5
3D4
  8
PG-LI
 10
352935.018
 20
4795826.225
 30
0.0
  0
VERTEX
  5
3D5
  8
PG-LI
 10
352941.7185
 20
4795829.385
 30
0.0
  0
VERTEX
  5
3D6
  8
PG-LI
 10
352945.3285
 20
4795831.085
 30
0.0
  0
SEQEND
  5
3D0
  8
PG-LI
  0
POLYLINE
  5
A5
  8
PG-LI
 66
     1
 10
0.0
 20
0.0
 30
0.0
  0
VERTEX
  5
3D8
  8
PG-LI
 10
352943.0385
 20
4795871.1355
 30
0.0
  0
VERTEX
  5
3D9
  8
PG-LI
 10
352934.9885
 20
4795867.3355
 30
0.0
  0
VERTEX
  5
3DA
  8
PG-LI
 10
352934.4385
 20
4795867.0755
 30
0.0
  0
VERTEX
  5
3DB
  8
PG-LI
 10
352934.2585
 20
4795866.9955
 30
0.0
  0
VERTEX
  5
3DC
  8
PG-LI
 10
352932.7185
 20
4795866.2655
 30
0.0
  0
SEQEND
  5
3D7
  8
PG-LI
  0
POLYLINE
  5
AC
  8
PG-LI
 66
     1
 10
0.0
 20
0.0
 30
0.0
  0
VERTEX
  5
3DE
  8
PG-LI
 10
352932.7185
 20
4795866.2655
 30
0.0
  0
VERTEX
  5
3DF
  8
PG-LI
 10
352933.7385
 20
4795864.1055
 30
0.0
  0
VERTEX
  5
3E0
  8
PG-LI
 10
352934.0885
 20
4795863.3755
 30
0.0
  0
SEQEND
  5
3DD
  8
PG-LI
  0
LINE
  5
B1
  8
PG-LI
 10
352932.978
 20
4795842.285
 30
0.0
 11
352934.258
 21
4795839.575
 31
0.0
  0
POLYLINE
  5
B2
  8
PG-LI
 66
     1
 10
0.0
 20
0.0
 30
0.0
  0
VERTEX
  5
3E2
  8
PG-LI
 10
352943.7985
 20
4795857.785
 30
0.0
  0
VERTEX
  5
3E3
  8
PG-LI
 10
352935.7485
 20
4795853.985
 30
0.0
  0
VERTEX
  5
3E4
  8
PG-LI
 10
352935.2085
 20
4795853.735
 30
0.0
  0
VERTEX
  5
3E5
  8
PG-LI
 10
352935.0285
 20
4795853.645
 30
0.0
  0
VERTEX
  5
3E6
  8
PG-LI
 10
352933.488
 20
4795852.925
 30
0.0
  0
SEQEND
  5
3E1
  8
PG-LI
  0
POLYLINE
  5
B9
  8
PG-LI
 66
     1
 10
0.0
 20
0.0
 30
0.0
  0
VERTEX
  5
3E8
  8
PG-LI
 10
352933.488
 20
4795852.925
 30
0.0
  0
VERTEX
  5
3E9
  8
PG-LI
 10
352934.5085
 20
4795850.745
 30
0.0
  0
VERTEX
  5
3EA
  8
PG-LI
 10
352934.8485
 20
4795850.025
 30
0.0
  0
SEQEND
  5
3E7
  8
PG-LI
  0
LINE
  5
BE
  8
PG-LI
 10
352934.0885
 20
4795863.3755
 30
0.0
 11
352935.3685
 21
4795860.6655
 31
0.0
  0
POLYLINE
  5
BF
  8
PG-LI
 66
     1
 10
0.0
 20
0.0
 30
0.0
  0
VERTEX
  5
3EC
  8
PG-LI
 10
352944.5685
 20
4795844.435
 30
0.0
  0
VERTEX
  5
3ED
  8
PG-LI
 10
352936.518
 20
4795840.645
 30
0.0
  0
VERTEX
  5
3EE
  8
PG-LI
 10
352935.968
 20
4795840.385
 30
0.0
  0
VERTEX
  5
3EF
  8
PG-LI
 10
352935.788
 20
4795840.295
 30
0.0
  0
VERTEX
  5
3F0
  8
PG-LI
 10
352934.258
 20
4795839.575
 30
0.0
  0
SEQEND
  5
3EB
  8
PG-LI
  0
POLYLINE
  5
C6
  8
PG-LI
 66
     1
 10
0.0
 20
0.0
 30
0.0
  0
VERTEX
  5
3F2
  8
PG-LI
 10
352934.258
 20
4795839.575
 30
0.0
  0
VERTEX
  5
3F3
  8
PG-LI
 10
352935.278
 20
4795837.405
 30
0.0
  0
VERTEX
  5
3F4
  8
PG-LI
 10
352935.618
 20
4795836.675
 30
0.0
  0
SEQEND
  5
3F1
  8
PG-LI
  0
LINE
  5
CB
  8
PG-LI
 10
352934.8485
 20
4795850.025
 30
0.0
 11
352936.1285
 21
4795847.315
 31
0.0
  0
POLYLINE
  5
CC
  8
PG-LI
 66
     1
 10
0.0
 20
0.0
 30
0.0
  0
VERTEX
  5
3F6
  8
PG-LI
 10
352935.3685
 20
4795860.6655
 30
0.0
  0
VERTEX
  5
3F7
  8
PG-LI
 10
352936.8985
 20
4795861.3855
 30
0.0
  0
VERTEX
  5
3F8
  8
PG-LI
 10
352942.0585
 20
4795863.8155
 30
0.0
  0
SEQEND
  5
3F5
  8
PG-LI
  0
LINE
  5
D1
  8
PG-LI
 10
352935.618
 20
4795836.675
 30
0.0
 11
352936.898
 21
4795833.965
 31
0.0
  0
LINE
  5
D2
  8
PG-LI
 10
352936.1285
 20
4795847.315
 30
0.0
 11
352942.8285
 21
4795850.465
 31
0.0
  0
LINE
  5
D3
  8
PG-LI
 10
352936.898
 20
4795833.965
 30
0.0
 11
352938.438
 21
4795834.695
 31
0.0
  0
LINE
  5
D4
  8
PG-LI
 10
352938.438
 20
4795834.695
 30
0.0
 11
352943.5885
 21
4795837.125
 31
0.0
  0
LINE
  5
D5
  8
PG-LI
 10
352942.6385
 20
4795874.3155
 30
0.0
 11
352941.7385
 21
4795873.8855
 31
0.0
  0
LINE
  5
D6
  8
PG-LI
 10
352941.7385
 20
4795873.8855
 30
0.0
 11
352943.0385
 21
4795871.1355
 31
0.0
  0
LINE
  5
D7
  8
PG-LI
 10
352945.6785
 20
4795865.5255
 30
0.0
 11
352942.0585
 21
4795863.8155
 31
0.0
  0
LINE
  5
D8
  8
PG-LI
 10
352942.0585
 20
4795863.8155
 30
0.0
 11
352943.3985
 21
4795860.9655
 31
0.0
  0
LINE
  5
D9
  8
PG-LI
 10
352943.3985
 20
4795860.9655
 30
0.0
 11
352942.4985
 21
4795860.5455
 31
0.0
  0
LINE
  5
DA
  8
PG-LI
 10
352942.4985
 20
4795860.5455
 30
0.0
 11
352943.7985
 21
4795857.785
 31
0.0
  0
LINE
  5
DB
  8
PG-LI
 10
352943.9385
 20
4795871.5555
 30
0.0
 11
352942.6385
 21
4795874.3155
 31
0.0
  0
LINE
  5
DC
  8
PG-LI
 10
352946.4385
 20
4795852.175
 30
0.0
 11
352942.8285
 21
4795850.465
 31
0.0
  0
LINE
  5
DD
  8
PG-LI
 10
352942.8285
 20
4795850.465
 30
0.0
 11
352944.1685
 21
4795847.625
 31
0.0
  0
LINE
  5
DE
  8
PG-LI
 10
352943.0385
 20
4795871.1355
 30
0.0
 11
352943.9385
 21
4795871.5555
 31
0.0
  0
LINE
  5
DF
  8
PG-LI
 10
352944.1685
 20
4795847.625
 30
0.0
 11
352943.2685
 21
4795847.195
 31
0.0
  0
LINE
  5
E0
  8
PG-LI
 10
352943.2685
 20
4795847.195
 30
0.0
 11
352944.5685
 21
4795844.435
 31
0.0
  0
LINE
  5
E1
  8
PG-LI
 10
352944.6985
 20
4795858.205
 30
0.0
 11
352943.3985
 21
4795860.9655
 31
0.0
  0
LINE
  5
E2
  8
PG-LI
 10
352943.5885
 20
4795837.125
 30
0.0
 11
352947.2085
 21
4795838.825
 31
0.0
  0
LINE
  5
E3
  8
PG-LI
 10
352944.9385
 20
4795834.275
 30
0.0
 11
352943.5885
 21
4795837.125
 31
0.0
  0
LINE
  5
E4
  8
PG-LI
 10
352943.7985
 20
4795857.785
 30
0.0
 11
352944.6985
 21
4795858.205
 31
0.0
  0
POLYLINE
  5
E5
  8
PG-LI
 66
     1
 10
0.0
 20
0.0
 30
0.0
  0
VERTEX
  5
3FA
  8
PG-LI
 10
352953.489
 20
4795873.2255
 30
0.0
  0
VERTEX
  5
3FB
  8
PG-LI
 10
352950.489
 20
4795871.8155
 30
0.0
  0
VERTEX
  5
3FC
  8
PG-LI
 10
352949.569
 20
4795873.7555
 30
0.0
  0
VERTEX
  5
3FD
  8
PG-LI
 10
352943.9385
 20
4795871.5555
 30
0.0
  0
SEQEND
  5
3F9
  8
PG-LI
  0
LINE
  5
EB
  8
PG-LI
 10
352943.9385
 20
4795871.5555
 30
0.0
 11
352945.2785
 21
4795868.7055
 31
0.0
  0
LINE
  5
EC
  8
PG-LI
 10
352944.9385
 20
4795834.275
 30
0.0
 11
352944.0285
 21
4795833.845
 31
0.0
  0
LINE
  5
ED
  8
PG-LI
 10
352944.0285
 20
4795833.845
 30
0.0
 11
352945.3285
 21
4795831.085
 31
0.0
  0
LINE
  5
EE
  8
PG-LI
 10
352945.4685
 20
4795844.865
 30
0.0
 11
352944.1685
 21
4795847.625
 31
0.0
  0
LINE
  5
EF
  8
PG-LI
 10
352945.2785
 20
4795868.7055
 30
0.0
 11
352944.3785
 21
4795868.2855
 31
0.0
  0
LINE
  5
F0
  8
PG-LI
 10
352944.3785
 20
4795868.2855
 30
0.0
 11
352945.6785
 21
4795865.5255
 31
0.0
  0
LINE
  5
F1
  8
PG-LI
 10
352944.5685
 20
4795844.435
 30
0.0
 11
352945.4685
 21
4795844.865
 31
0.0
  0
LINE
  5
F2
  8
PG-LI
 10
352956.709
 20
4795863.865
 30
0.0
 11
352944.6985
 21
4795858.205
 31
0.0
  0
LINE
  5
F3
  8
PG-LI
 10
352944.6985
 20
4795858.205
 30
0.0
 11
352946.0485
 21
4795855.355
 31
0.0
  0
LINE
  5
F4
  8
PG-LI
 10
352946.2385
 20
4795831.515
 30
0.0
 11
352944.9385
 21
4795834.275
 31
0.0
  0
LINE
  5
F5
  8
PG-LI
 10
352946.0485
 20
4795855.355
 30
0.0
 11
352945.1385
 21
4795854.935
 31
0.0
  0
LINE
  5
F6
  8
PG-LI
 10
352945.1385
 20
4795854.935
 30
0.0
 11
352946.4385
 21
4795852.175
 31
0.0
  0
LINE
  5
F7
  8
PG-LI
 10
352946.5785
 20
4795865.9455
 30
0.0
 11
352945.2785
 21
4795868.7055
 31
0.0
  0
LINE
  5
F8
  8
PG-LI
 10
352945.3285
 20
4795831.085
 30
0.0
 11
352946.2385
 21
4795831.515
 31
0.0
  0
LINE
  5
F9
  8
PG-LI
 10
352951.4544
 20
4795847.6833
 30
0.0
 11
352945.4685
 21
4795844.865
 31
0.0
  0
LINE
  5
FA
  8
PG-LI
 10
352945.4685
 20
4795844.865
 30
0.0
 11
352946.8085
 21
4795842.015
 31
0.0
  0
LINE
  5
FB
  8
PG-LI
 10
352945.6785
 20
4795865.5255
 30
0.0
 11
352946.5785
 21
4795865.9455
 31
0.0
  0
LINE
  5
FC
  8
PG-LI
 10
352946.8085
 20
4795842.015
 30
0.0
 11
352945.9085
 21
4795841.585
 31
0.0
  0
LINE
  5
FD
  8
PG-LI
 10
352945.9085
 20
4795841.585
 30
0.0
 11
352947.2085
 21
4795838.825
 31
0.0
  0
LINE
  5
FE
  8
PG-LI
 10
352947.3485
 20
4795852.605
 30
0.0
 11
352946.0485
 21
4795855.355
 31
0.0
  0
LINE
  5
FF
  8
PG-LI
 10
352946.4385
 20
4795852.175
 30
0.0
 11
352947.3485
 21
4795852.605
 31
0.0
  0
LINE
  5
100
  8
PG-LI
 10
352946.5785
 20
4795865.9455
 30
0.0
 11
352954.679
 21
4795869.7655
 31
0.0
  0
LINE
  5
101
  8
PG-LI
 10
352948.1185
 20
4795839.255
 30
0.0
 11
352946.8085
 21
4795842.015
 31
0.0
  0
LINE
  5
102
  8
PG-LI
 10
352947.2085
 20
4795838.825
 30
0.0
 11
352948.1185
 21
4795839.255
 31
0.0
  0
LINE
  5
103
  8
PG-LI
 10
352947.3485
 20
4795852.605
 30
0.0
 11
352955.949
 21
4795856.655
 31
0.0
  0
LINE
  5
104
  8
PG-LI
 10
352948.1185
 20
4795839.255
 30
0.0
 11
352961.549
 21
4795845.585
 31
0.0
  0
POLYLINE
  5
105
  8
PG-LI
 66
     1
 10
0.0
 20
0.0
 30
0.0
  0
VERTEX
  5
3FF
  8
PG-LI
 10
352956.8824
 20
4795850.239
 30
0.0
  0
VERTEX
  5
400
  8
PG-LI
 10
352956.062
 20
4795849.8527
 30
0.0
  0
VERTEX
  5
401
  8
PG-LI
 10
352953.2875
 20
4795848.5464
 30
0.0
  0
VERTEX
  5
402
  8
PG-LI
 10
352951.4544
 20
4795847.6833
 30
0.0
  0
SEQEND
  5
3FE
  8
PG-LI
  0
POLYLINE
  5
10B
  8
PG-LI
 66
     1
 10
0.0
 20
0.0
 30
0.0
  0
VERTEX
  5
404
  8
PG-LI
 10
352956.8824
 20
4795850.239
 30
0.0
  0
VERTEX
  5
405
  8
PG-LI
 10
352958.1614
 20
4795847.5534
 30
0.0
  0
VERTEX
  5
406
  8
PG-LI
 10
352952.7439
 20
4795844.9746
 30
0.0
  0
VERTEX
  5
407
  8
PG-LI
 10
352951.4544
 20
4795847.6833
 30
0.0
  0
SEQEND
  5
403
  8
PG-LI
  0
POLYLINE
  5
111
  8
PG-LP
 66
     1
 10
0.0
 20
0.0
 30
0.0
  0
VERTEX
  5
409
  8
PG-LP
 10
352952.939
 20
4795874.8355
 30
0.0
  0
VERTEX
  5
40A
  8
PG-LP
 10
352961.759
 20
4795878.5555
 30
0.0
  0
VERTEX
  5
40B
  8
PG-LP
 10
352972.8395
 20
4795879.0455
 30
0.0
  0
VERTEX
  5
40C
  8
PG-LP
 10
352977.9895
 20
4795864.105
 30
0.0
  0
VERTEX
  5
40D
  8
PG-LP
 10
352968.139
 20
4795859.705
 30
0.0
  0
VERTEX
  5
40E
  8
PG-LP
 10
352958.759
 20
4795856.305
 30
0.0
  0
VERTEX
  5
40F
  8
PG-LP
 10
352964.129
 20
4795846.805
 30
0.0
  0
SEQEND
  5
408
  8
PG-LP
  0
LINE
  5
11A
  8
PG-LI
 10
352952.939
 20
4795874.8355
 30
0.0
 11
352953.489
 21
4795873.2255
 31
0.0
  0
LINE
  5
11B
  8
PG-LI
 10
352953.489
 20
4795873.2255
 30
0.0
 11
352954.679
 21
4795869.7655
 31
0.0
  0
LINE
  5
11C
  8
PG-LI
 10
352954.679
 20
4795869.7655
 30
0.0
 11
352956.709
 21
4795863.865
 31
0.0
  0
LINE
  5
11D
  8
PG-LI
 10
352958.749
 20
4795857.975
 30
0.0
 11
352955.949
 21
4795856.655
 31
0.0
  0
LINE
  5
11E
  8
PG-LI
 10
352955.949
 20
4795856.655
 30
0.0
 11
352958.849
 21
4795851.165
 31
0.0
  0
LINE
  5
11F
  8
PG-LI
 10
352956.709
 20
4795863.865
 30
0.0
 11
352958.749
 21
4795857.975
 31
0.0
  0
LINE
  5
120
  8
PG-LI
 10
352958.849
 20
4795851.165
 30
0.0
 11
352956.8824
 21
4795850.239
 31
0.0
  0
LINE
  5
121
  8
PG-LI
 10
352958.849
 20
4795851.165
 30
0.0
 11
352961.549
 21
4795845.585
 31
0.0
  0
LINE
  5
122
  8
PG-LI
 10
352961.549
 20
4795845.585
 30
0.0
 11
352964.129
 21
4795846.805
 31
0.0
  0
POLYLINE
  5
123
  8
PG-LF
 66
     1
 10
0.0
 20
0.0
 30
0.0
  0
VERTEX
  5
411
  8
PG-LF
 10
352921.6
 20
4795856.02
 30
0.0
  0
VERTEX
  5
412
  8
PG-LF
 10
352922.06
 20
4795856.05
 30
0.0
  0
VERTEX
  5
413
  8
PG-LF
 10
352922.08
 20
4795855.82
 30
0.0
  0
VERTEX
  5
414
  8
PG-LF
 10
352922.58
 20
4795856.38
 30
0.0
  0
VERTEX
  5
415
  8
PG-LF
 10
352922.02
 20
4795856.88
 30
0.0
  0
VERTEX
  5
416
  8
PG-LF
 10
352922.03
 20
4795856.65
 30
0.0
  0
VERTEX
  5
417
  8
PG-LF
 10
352921.56
 20
4795856.62
 30
0.0
  0
VERTEX
  5
418
  8
PG-LF
 10
352921.6
 20
4795856.02
 30
0.0
  0
SEQEND
  5
410
  8
PG-LF
  0
LINE
  5
12D
  8
PG-CO
 10
352978.84
 20
4795864.4
 30
0.0
 11
352973.69
 21
4795879.34
 31
0.0
  0
LINE
  5
12E
  8
PG-CO
 10
352968.51
 20
4795858.89
 30
0.0
 11
352978.36
 21
4795863.29
 31
0.0
  0
LINE
  5
12F
  8
PG-CO
 10
352959.07
 20
4795855.46
 30
0.0
 11
352968.45
 21
4795858.86
 31
0.0
  0
LINE
  5
130
  8
PG-CO
 10
352969.46
 20
4795839.18
 30
0.0
 11
352959.54
 21
4795856.75
 31
0.0
  0
LINE
  5
131
  8
PG-CO
 10
352959.67
 20
4795834.67
 30
0.0
 11
352968.97
 21
4795837.89
 31
0.0
  0
LINE
  5
132
  8
PG-CO
 10
352950.24
 20
4795829.95
 30
0.0
 11
352959.78
 21
4795834.72
 31
0.0
  0
LINE
  5
133
  8
PG-CO
 10
352937.81
 20
4795824.04
 30
0.0
 11
352950.23
 21
4795829.94
 31
0.0
  0
LINE
  5
134
  8
PG-CO
 10
352926.7
 20
4795817.68
 30
0.0
 11
352937.87
 21
4795824.07
 31
0.0
  0
LINE
  5
135
  8
PG-CO
 10
352921.24
 20
4795894.6
 30
0.0
 11
352925.35
 21
4795818.41
 31
0.0
  0
LINE
  5
136
  8
PG-CO
 10
352924.38
 20
4795887.12
 30
0.0
 11
352923.03
 21
4795894.81
 31
0.0
  0
LINE
  5
137
  8
PG-CO
 10
352928.69
 20
4795878.71
 30
0.0
 11
352924.29
 21
4795887.37
 31
0.0
  0
LINE
  5
138
  8
PG-CO
 10
352946.7
 20
4795885.36
 30
0.0
 11
352927.61
 21
4795879.16
 31
0.0
  0
LINE
  5
139
  8
PG-CO
 10
352952.37
 20
4795874.62
 30
0.0
 11
352947.8
 21
4795884.87
 31
0.0
  0
LINE
  5
13A
  8
PG-CO
 10
352961.41
 20
4795879.39
 30
0.0
 11
352951.2
 21
4795875.08
 31
0.0
  0
LINE
  5
13B
  8
PG-CO
 10
352972.8
 20
4795879.95
 30
0.0
 11
352961.72
 21
4795879.46
 31
0.0
  0
TEXT
  5
13C
  8
PG-CO
 10
352976.01
 20
4795872.97
 30
0.0
 40
0.6
  1
15.80
 50
283.2
 72
     5
 11
352976.01
 21
4795872.97
 31
0.0
 73
     6
  0
TEXT
  5
13D
  8
PG-CO
 10
352972.41
 20
4795860.63
 30
0.0
 40
0.6
  1
10.79
 50
24.13
 72
     5
 11
352972.41
 21
4795860.63
 31
0.0
 73
     6
  0
TEXT
  5
13E
  8
PG-CO
 10
352962.91
 20
4795856.86
 30
0.0
 40
0.6
  1
9.98
 50
19.93
 72
     5
 11
352962.91
 21
4795856.86
 31
0.0
 73
     6
  0
TEXT
  5
13F
  8
PG-CO
 10
352964.03
 20
4795848.98
 30
0.0
 40
0.6
  1
20.17
 50
295.14
 72
     5
 11
352964.03
 21
4795848.98
 31
0.0
 73
     6
  0
TEXT
  5
140
  8
PG-CO
 10
352963.47
 20
4795835.98
 30
0.0
 40
0.6
  1
9.84
 50
19.13
 72
     5
 11
352963.47
 21
4795835.98
 31
0.0
 73
     6
  0
TEXT
  5
141
  8
PG-CO
 10
352954.01
 20
4795831.82
 30
0.0
 40
0.6
  1
10.67
 50
26.83
 72
     5
 11
352954.01
 21
4795831.82
 31
0.0
 73
     6
  0
TEXT
  5
142
  8
PG-CO
 10
352943.0
 20
4795826.5
 30
0.0
 40
0.6
  1
13.75
 50
25.74
 72
     5
 11
352943.0
 21
4795826.5
 31
0.0
 73
     6
  0
TEXT
  5
143
  8
PG-CO
 10
352931.31
 20
4795820.31
 30
0.0
 40
0.6
  1
12.87
 50
29.8
 72
     5
 11
352931.31
 21
4795820.31
 31
0.0
 73
     6
  0
TEXT
  5
144
  8
PG-CO
 10
352923.29
 20
4795857.63
 30
0.0
 40
0.6
  1
76.29
 50
270.13
 72
     5
 11
352923.29
 21
4795857.63
 31
0.0
 73
     6
  0
TEXT
  5
145
  8
PG-CO
 10
352923.68
 20
4795891.86
 30
0.0
 40
0.6
  1
7.81
 50
271.36
 72
     5
 11
352923.68
 21
4795891.86
 31
0.0
 73
     6
  0
TEXT
  5
146
  8
PG-CO
 10
352926.13
 20
4795883.86
 30
0.0
 40
0.6
  1
9.71
 50
293.58
 72
     5
 11
352926.13
 21
4795883.86
 31
0.0
 73
     6
  0
TEXT
  5
147
  8
PG-CO
 10
352936.09
 20
4795881.91
 30
0.0
 40
0.6
  1
20.07
 50
18.06
 72
     5
 11
352936.09
 21
4795881.91
 31
0.0
 73
     6
  0
TEXT
  5
148
  8
PG-CO
 10
352949.67
 20
4795880.78
 30
0.0
 40
0.6
  1
11.22
 50
291.96
 72
     5
 11
352949.67
 21
4795880.78
 31
0.0
 73
     6
  0
TEXT
  5
149
  8
PG-CO
 10
352955.27
 20
4795876.79
 30
0.0
 40
0.6
  1
11.08
 50
23.01
 72
     5
 11
352955.27
 21
4795876.79
 31
0.0
 73
     6
  0
TEXT
  5
14A
  8
PG-CO
 10
352966.14
 20
4795879.65
 30
0.0
 40
0.6
  1
11.09
 50
2.53
 72
     5
 11
352966.14
 21
4795879.65
 31
0.0
 73
     6
  0
TEXT
  5
14B
  8
PS01-AU
 10
352937.87
 20
4795872.53
 30
0.0
 40
0.4
  1
AAP.01
 72
     1
 11
352937.87
 21
4795872.53
 31
0.0
 73
     3
  0
TEXT
  5
14C
  8
PS01-AS
 10
352937.87
 20
4795872.53
 30
0.0
 40
0.4
  1
77
 72
     1
 11
352937.87
 21
4795872.53
 31
0.0
 73
     1
  0
TEXT
  5
14D
  8
PS01-AU
 10
352939.12
 20
4795859.46
 30
0.0
 40
0.4
  1
AAP.03
 72
     1
 11
352939.12
 21
4795859.46
 31
0.0
 73
     3
  0
TEXT
  5
14E
  8
PS01-AS
 10
352939.12
 20
4795859.46
 30
0.0
 40
0.4
  1
77
 72
     1
 11
352939.12
 21
4795859.46
 31
0.0
 73
     1
  0
TEXT
  5
14F
  8
PS01-AU
 10
352941.72
 20
4795846.14
 30
0.0
 40
0.4
  1
AAP.05
 72
     1
 11
352941.72
 21
4795846.14
 31
0.0
 73
     3
  0
TEXT
  5
150
  8
PS01-AS
 10
352941.72
 20
4795846.14
 30
0.0
 40
0.4
  1
77
 72
     1
 11
352941.72
 21
4795846.14
 31
0.0
 73
     1
  0
TEXT
  5
151
  8
PS01-AU
 10
352940.74
 20
4795832.49
 30
0.0
 40
0.4
  1
AAP.07
 72
     1
 11
352940.74
 21
4795832.49
 31
0.0
 73
     3
  0
TEXT
  5
152
  8
PS01-AS
 10
352940.74
 20
4795832.49
 30
0.0
 40
0.4
  1
77
 72
     1
 11
352940.74
 21
4795832.49
 31
0.0
 73
     1
  0
TEXT
  5
153
  8
PS01-AU
 10
352940.3
 20
4795866.88
 30
0.0
 40
0.4
  1
AAP.02
 72
     1
 11
352940.3
 21
4795866.88
 31
0.0
 73
     3
  0
TEXT
  5
154
  8
PS01-AS
 10
352940.3
 20
4795866.88
 30
0.0
 40
0.4
  1
77
 72
     1
 11
352940.3
 21
4795866.88
 31
0.0
 73
     1
  0
TEXT
  5
155
  8
PS01-AU
 10
352941.26
 20
4795853.59
 30
0.0
 40
0.4
  1
AAP.04
 72
     1
 11
352941.26
 21
4795853.59
 31
0.0
 73
     3
  0
TEXT
  5
156
  8
PS01-AS
 10
352941.26
 20
4795853.59
 30
0.0
 40
0.4
  1
77
 72
     1
 11
352941.26
 21
4795853.59
 31
0.0
 73
     1
  0
TEXT
  5
157
  8
PS01-AU
 10
352942.72
 20
4795840.37
 30
0.0
 40
0.4
  1
AAP.06
 72
     1
 11
352942.72
 21
4795840.37
 31
0.0
 73
     3
  0
TEXT
  5
158
  8
PS01-AS
 10
352942.72
 20
4795840.37
 30
0.0
 40
0.4
  1
77
 72
     1
 11
352942.72
 21
4795840.37
 31
0.0
 73
     1
  0
POLYLINE
  5
159
  8
PS01-LI
 66
     1
 10
0.0
 20
0.0
 30
0.0
  0
VERTEX
  5
41A
  8
PS01-LI
 10
352943.9385
 20
4795871.5555
 30
0.0
  0
VERTEX
  5
41B
  8
PS01-LI
 10
352934.4485
 20
4795867.0855
 30
0.0
  0
VERTEX
  5
41C
  8
PS01-LI
 10
352932.7185
 20
4795866.2655
 30
0.0
  0
SEQEND
  5
419
  8
PS01-LI
  0
POLYLINE
  5
15E
  8
PS01-LP
 66
     1
 10
0.0
 20
0.0
 30
0.0
  0
VERTEX
  5
41E
  8
PS01-LP
 10
352932.7185
 20
4795866.2655
 30
0.0
  0
VERTEX
  5
41F
  8
PS01-LP
 10
352930.0785
 20
4795871.8755
 30
0.0
  0
VERTEX
  5
420
  8
PS01-LP
 10
352941.2985
 20
4795877.1655
 30
0.0
  0
VERTEX
  5
421
  8
PS01-LP
 10
352943.9385
 20
4795871.5555
 30
0.0
  0
SEQEND
  5
41D
  8
PS01-LP
  0
LINE
  5
164
  8
PS01-LP
 10
352935.3685
 20
4795860.6655
 30
0.0
 11
352932.7185
 21
4795866.2655
 31
0.0
  0
POLYLINE
  5
165
  8
PS01-LI
 66
     1
 10
0.0
 20
0.0
 30
0.0
  0
VERTEX
  5
423
  8
PS01-LI
 10
352944.6985
 20
4795858.205
 30
0.0
  0
VERTEX
  5
424
  8
PS01-LI
 10
352935.2085
 20
4795853.735
 30
0.0
  0
VERTEX
  5
425
  8
PS01-LI
 10
352933.488
 20
4795852.925
 30
0.0
  0
SEQEND
  5
422
  8
PS01-LI
  0
POLYLINE
  5
16A
  8
PS01-LP
 66
     1
 10
0.0
 20
0.0
 30
0.0
  0
VERTEX
  5
427
  8
PS01-LP
 10
352933.488
 20
4795852.925
 30
0.0
  0
VERTEX
  5
428
  8
PS01-LP
 10
352930.838
 20
4795858.5255
 30
0.0
  0
VERTEX
  5
429
  8
PS01-LP
 10
352935.3685
 20
4795860.6655
 30
0.0
  0
SEQEND
  5
426
  8
PS01-LP
  0
LINE
  5
16F
  8
PS01-LP
 10
352936.1285
 20
4795847.315
 30
0.0
 11
352933.488
 21
4795852.925
 31
0.0
  0
POLYLINE
  5
170
  8
PS01-LI
 66
     1
 10
0.0
 20
0.0
 30
0.0
  0
VERTEX
  5
42B
  8
PS01-LI
 10
352945.4685
 20
4795844.865
 30
0.0
  0
VERTEX
  5
42C
  8
PS01-LI
 10
352935.978
 20
4795840.385
 30
0.0
  0
VERTEX
  5
42D
  8
PS01-LI
 10
352934.258
 20
4795839.575
 30
0.0
  0
SEQEND
  5
42A
  8
PS01-LI
  0
POLYLINE
  5
175
  8
PS01-LP
 66
     1
 10
0.0
 20
0.0
 30
0.0
  0
VERTEX
  5
42F
  8
PS01-LP
 10
352934.258
 20
4795839.575
 30
0.0
  0
VERTEX
  5
430
  8
PS01-LP
 10
352931.608
 20
4795845.185
 30
0.0
  0
VERTEX
  5
431
  8
PS01-LP
 10
352936.1285
 20
4795847.315
 30
0.0
  0
SEQEND
  5
42E
  8
PS01-LP
  0
LINE
  5
17A
  8
PS01-LP
 10
352936.898
 20
4795833.965
 30
0.0
 11
352934.258
 21
4795839.575
 31
0.0
  0
LINE
  5
17B
  8
PS01-LI
 10
352935.3685
 20
4795860.6655
 30
0.0
 11
352942.0585
 21
4795863.8155
 31
0.0
  0
LINE
  5
17C
  8
PS01-LI
 10
352936.1285
 20
4795847.315
 30
0.0
 11
352942.8285
 21
4795850.465
 31
0.0
  0
LINE
  5
17D
  8
PS01-LI
 10
352936.898
 20
4795833.965
 30
0.0
 11
352943.5885
 21
4795837.125
 31
0.0
  0
POLYLINE
  5
17E
  8
PS01-LP
 66
     1
 10
0.0
 20
0.0
 30
0.0
  0
VERTEX
  5
433
  8
PS01-LP
 10
352943.5885
 20
4795837.125
 30
0.0
  0
VERTEX
  5
434
  8
PS01-LP
 10
352946.2385
 20
4795831.515
 30
0.0
  0
VERTEX
  5
435
  8
PS01-LP
 10
352941.7185
 20
4795829.385
 30
0.0
  0
VERTEX
  5
436
  8
PS01-LP
 10
352935.018
 20
4795826.225
 30
0.0
  0
VERTEX
  5
437
  8
PS01-LP
 10
352932.378
 20
4795831.835
 30
0.0
  0
VERTEX
  5
438
  8
PS01-LP
 10
352933.918
 20
4795832.565
 30
0.0
  0
VERTEX
  5
439
  8
PS01-LP
 10
352936.898
 20
4795833.965
 30
0.0
  0
SEQEND
  5
432
  8
PS01-LP
  0
LINE
  5
187
  8
PS01-LP
 10
352946.5785
 20
4795865.9455
 30
0.0
 11
352942.0585
 21
4795863.8155
 31
0.0
  0
LINE
  5
188
  8
PS01-LP
 10
352942.0585
 20
4795863.8155
 30
0.0
 11
352944.6985
 21
4795858.205
 31
0.0
  0
LINE
  5
189
  8
PS01-LP
 10
352947.3485
 20
4795852.605
 30
0.0
 11
352942.8285
 21
4795850.465
 31
0.0
  0
LINE
  5
18A
  8
PS01-LP
 10
352942.8285
 20
4795850.465
 30
0.0
 11
352945.4685
 21
4795844.865
 31
0.0
  0
LINE
  5
18B
  8
PS01-LP
 10
352948.1185
 20
4795839.255
 30
0.0
 11
352943.5885
 21
4795837.125
 31
0.0
  0
LINE
  5
18C
  8
PS01-LP
 10
352943.9385
 20
4795871.5555
 30
0.0
 11
352946.5785
 21
4795865.9455
 31
0.0
  0
LINE
  5
18D
  8
PS01-LP
 10
352944.6985
 20
4795858.205
 30
0.0
 11
352947.3485
 21
4795852.605
 31
0.0
  0
LINE
  5
18E
  8
PS01-LP
 10
352945.4685
 20
4795844.865
 30
0.0
 11
352948.1185
 21
4795839.255
 31
0.0
  0
LINE
  5
18F
  8
PS01-CO
 10
352934.55
 20
4795860.28
 30
0.0
 11
352931.91
 21
4795865.89
 31
0.0
  0
LINE
  5
190
  8
PS01-CO
 10
352930.46
 20
4795859.35
 30
0.0
 11
352934.98
 21
4795861.48
 31
0.0
  0
LINE
  5
191
  8
PS01-CO
 10
352935.32
 20
4795846.93
 30
0.0
 11
352930.03
 21
4795858.15
 31
0.0
  0
LINE
  5
192
  8
PS01-CO
 10
352931.23
 20
4795846.0
 30
0.0
 11
352935.75
 21
4795848.13
 31
0.0
  0
LINE
  5
193
  8
PS01-CO
 10
352936.08
 20
4795833.58
 30
0.0
 11
352930.8
 21
4795844.8
 31
0.0
  0
LINE
  5
194
  8
PS01-CO
 10
352931.99
 20
4795832.64
 30
0.0
 11
352936.51
 21
4795834.78
 31
0.0
  0
LINE
  5
195
  8
PS01-CO
 10
352934.21
 20
4795825.84
 30
0.0
 11
352931.56
 21
4795831.45
 31
0.0
  0
LINE
  5
196
  8
PS01-CO
 10
352946.62
 20
4795830.7
 30
0.0
 11
352935.41
 21
4795825.41
 31
0.0
  0
LINE
  5
197
  8
PS01-CO
 10
352944.41
 20
4795837.5
 30
0.0
 11
352947.05
 21
4795831.89
 31
0.0
  0
LINE
  5
198
  8
PS01-CO
 10
352948.5
 20
4795838.43
 30
0.0
 11
352943.98
 21
4795836.3
 31
0.0
  0
LINE
  5
199
  8
PS01-CO
 10
352943.64
 20
4795850.86
 30
0.0
 11
352948.93
 21
4795839.63
 31
0.0
  0
LINE
  5
19A
  8
PS01-CO
 10
352947.73
 20
4795851.79
 30
0.0
 11
352943.21
 21
4795849.66
 31
0.0
  0
LINE
  5
19B
  8
PS01-CO
 10
352942.87
 20
4795864.21
 30
0.0
 11
352948.16
 21
4795852.99
 31
0.0
  0
LINE
  5
19C
  8
PS01-CO
 10
352946.97
 20
4795865.14
 30
0.0
 11
352942.44
 21
4795863.01
 31
0.0
  0
LINE
  5
19D
  8
PS01-CO
 10
352942.11
 20
4795877.55
 30
0.0
 11
352947.4
 21
4795866.34
 31
0.0
  0
LINE
  5
19E
  8
PS01-CO
 10
352929.7
 20
4795872.7
 30
0.0
 11
352940.91
 21
4795877.98
 31
0.0
  0
LINE
  5
19F
  8
PS01-CO
 10
352931.91
 20
4795865.89
 30
0.0
 11
352929.27
 21
4795871.5
 31
0.0
  0
TEXT
  5
1A0
  8
PS01-CO
 10
352932.89
 20
4795863.92
 30
0.0
 40
0.6
  1
6.20
 50
292.61
 72
     5
 11
352932.89
 21
4795863.92
 31
0.0
 73
     6
  0
TEXT
  5
1A1
  8
PS01-CO
 10
352931.91
 20
4795860.03
 30
0.0
 40
0.6
  1
5.00
 50
25.58
 72
     5
 11
352931.91
 21
4795860.03
 31
0.0
 73
     6
  0
TEXT
  5
1A2
  8
PS01-CO
 10
352932.24
 20
4795853.58
 30
0.0
 40
0.6
  1
12.40
 50
292.61
 72
     5
 11
352932.24
 21
4795853.58
 31
0.0
 73
     6
  0
TEXT
  5
1A3
  8
PS01-CO
 10
352932.68
 20
4795846.68
 30
0.0
 40
0.6
  1
5.00
 50
25.58
 72
     5
 11
352932.68
 21
4795846.68
 31
0.0
 73
     6
  0
TEXT
  5
1A4
  8
PS01-CO
 10
352933.01
 20
4795840.23
 30
0.0
 40
0.6
  1
12.40
 50
292.61
 72
     5
 11
352933.01
 21
4795840.23
 31
0.0
 73
     6
  0
TEXT
  5
1A5
  8
PS01-CO
 10
352933.44
 20
4795833.32
 30
0.0
 40
0.6
  1
5.00
 50
25.58
 72
     5
 11
352933.44
 21
4795833.32
 31
0.0
 73
     6
  0
TEXT
  5
1A6
  8
PS01-CO
 10
352932.54
 20
4795829.47
 30
0.0
 40
0.6
  1
6.20
 50
292.61
 72
     5
 11
352932.54
 21
4795829.47
 31
0.0
 73
     6
  0
TEXT
  5
1A7
  8
PS01-CO
 10
352940.0
 20
4795827.57
 30
0.0
 40
0.6
  1
12.40
 50
25.58
 72
     5
 11
352940.0
 21
4795827.57
 31
0.0
 73
     6
  0
TEXT
  5
1A8
  8
PS01-CO
 10
352945.38
 20
4795835.53
 30
0.0
 40
0.6
  1
6.20
 50
292.61
 72
     5
 11
352945.38
 21
4795835.53
 31
0.0
 73
     6
  0
TEXT
  5
1A9
  8
PS01-CO
 10
352945.43
 20
4795836.98
 30
0.0
 40
0.6
  1
5.00
 50
25.58
 72
     5
 11
352945.43
 21
4795836.98
 31
0.0
 73
     6
  0
TEXT
  5
1AA
  8
PS01-CO
 10
352945.85
 20
4795846.29
 30
0.0
 40
0.6
  1
12.40
 50
292.61
 72
     5
 11
352945.85
 21
4795846.29
 31
0.0
 73
     6
  0
TEXT
  5
1AB
  8
PS01-CO
 10
352944.66
 20
4795850.34
 30
0.0
 40
0.6
  1
5.00
 50
25.58
 72
     5
 11
352944.66
 21
4795850.34
 31
0.0
 73
     6
  0
TEXT
  5
1AC
  8
PS01-CO
 10
352945.09
 20
4795859.64
 30
0.0
 40
0.6
  1
12.40
 50
292.61
 72
     5
 11
352945.09
 21
4795859.64
 31
0.0
 73
     6
  0
TEXT
  5
1AD
  8
PS01-CO
 10
352943.89
 20
4795863.69
 30
0.0
 40
0.6
  1
5.00
 50
25.58
 72
     5
 11
352943.89
 21
4795863.69
 31
0.0
 73
     6
  0
TEXT
  5
1AE
  8
PS01-CO
 10
352944.32
 20
4795872.98
 30
0.0
 40
0.6
  1
12.40
 50
292.61
 72
     5
 11
352944.32
 21
4795872.98
 31
0.0
 73
     6
  0
TEXT
  5
1AF
  8
PS01-CO
 10
352934.29
 20
4795874.85
 30
0.0
 40
0.6
  1
12.40
 50
25.58
 72
     5
 11
352934.29
 21
4795874.85
 31
0.0
 73
     6
  0
TEXT
  5
1B0
  8
PS01-CO
 10
352930.24
 20
4795869.53
 30
0.0
 40
0.6
  1
6.20
 50
292.61
 72
     5
 11
352930.24
 21
4795869.53
 31
0.0
 73
     6
  0
TEXT
  5
1B1
  8
PS02-AU
 10
352934.65
 20
4795875.61
 30
0.0
 40
0.4
  1
PTO.01
 72
     1
 11
352934.65
 21
4795875.61
 31
0.0
 73
     3
  0
TEXT
  5
1B2
  8
PS02-AS
 10
352934.65
 20
4795875.61
 30
0.0
 40
0.4
  1
303
 72
     1
 11
352934.65
 21
4795875.61
 31
0.0
 73
     1
  0
TEXT
  5
1B3
  8
PS02-AU
 10
352929.08
 20
4795861.0
 30
0.0
 40
0.4
  1
PTO.02
 72
     1
 11
352929.08
 21
4795861.0
 31
0.0
 73
     3
  0
TEXT
  5
1B4
  8
PS02-AS
 10
352929.08
 20
4795861.0
 30
0.0
 40
0.4
  1
69
 72
     1
 11
352929.08
 21
4795861.0
 31
0.0
 73
     1
  0
TEXT
  5
1B5
  8
PS02-AU
 10
352928.33
 20
4795853.75
 30
0.0
 40
0.4
  1
PTO.03
 72
     1
 11
352928.33
 21
4795853.75
 31
0.0
 73
     3
  0
TEXT
  5
1B6
  8
PS02-AS
 10
352928.33
 20
4795853.75
 30
0.0
 40
0.4
  1
53
 72
     1
 11
352928.33
 21
4795853.75
 31
0.0
 73
     1
  0
TEXT
  5
1B7
  8
PS02-AU
 10
352929.82
 20
4795847.64
 30
0.0
 40
0.4
  1
PTO.04
 72
     1
 11
352929.82
 21
4795847.64
 31
0.0
 73
     3
  0
TEXT
  5
1B8
  8
PS02-AS
 10
352929.82
 20
4795847.64
 30
0.0
 40
0.4
  1
69
 72
     1
 11
352929.82
 21
4795847.64
 31
0.0
 73
     1
  0
TEXT
  5
1B9
  8
PS02-AU
 10
352929.08
 20
4795840.4
 30
0.0
 40
0.4
  1
PTO.05
 72
     1
 11
352929.08
 21
4795840.4
 31
0.0
 73
     3
  0
TEXT
  5
1BA
  8
PS02-AS
 10
352929.08
 20
4795840.4
 30
0.0
 40
0.4
  1
53
 72
     1
 11
352929.08
 21
4795840.4
 31
0.0
 73
     1
  0
TEXT
  5
1BB
  8
PS02-AU
 10
352930.57
 20
4795834.28
 30
0.0
 40
0.4
  1
PTO.06
 72
     1
 11
352930.57
 21
4795834.28
 31
0.0
 73
     3
  0
TEXT
  5
1BC
  8
PS02-AS
 10
352930.57
 20
4795834.28
 30
0.0
 40
0.4
  1
69
 72
     1
 11
352930.57
 21
4795834.28
 31
0.0
 73
     1
  0
TEXT
  5
1BD
  8
PS02-AU
 10
352947.54
 20
4795833.79
 30
0.0
 40
0.4
  1
PTO.07
 72
     1
 11
352947.54
 21
4795833.79
 31
0.0
 73
     3
  0
TEXT
  5
1BE
  8
PS02-AS
 10
352947.54
 20
4795833.79
 30
0.0
 40
0.4
  1
310
 72
     1
 11
352947.54
 21
4795833.79
 31
0.0
 73
     1
  0
TEXT
  5
1BF
  8
PS02-AU
 10
352931.72
 20
4795871.33
 30
0.0
 40
0.4
  1
YPO.01
 72
     1
 11
352931.72
 21
4795871.33
 31
0.0
 73
     3
  0
TEXT
  5
1C0
  8
PS02-AS
 10
352931.72
 20
4795871.33
 30
0.0
 40
0.4
  1
6
 72
     1
 11
352931.72
 21
4795871.33
 31
0.0
 73
     1
  0
TEXT
  5
1C1
  8
PS02-AU
 10
352932.49
 20
4795857.98
 30
0.0
 40
0.4
  1
YPO.03
 72
     1
 11
352932.49
 21
4795857.98
 31
0.0
 73
     3
  0
TEXT
  5
1C2
  8
PS02-AS
 10
352932.49
 20
4795857.98
 30
0.0
 40
0.4
  1
6
 72
     1
 11
352932.49
 21
4795857.98
 31
0.0
 73
     1
  0
TEXT
  5
1C3
  8
PS02-AU
 10
352937.87
 20
4795872.53
 30
0.0
 40
0.4
  1
V.01
 72
     1
 11
352937.87
 21
4795872.53
 31
0.0
 73
     3
  0
TEXT
  5
1C4
  8
PS02-AS
 10
352937.87
 20
4795872.53
 30
0.0
 40
0.4
  1
68
 72
     1
 11
352937.87
 21
4795872.53
 31
0.0
 73
     1
  0
TEXT
  5
1C5
  8
PS02-AU
 10
352933.25
 20
4795844.63
 30
0.0
 40
0.4
  1
YPO.05
 72
     1
 11
352933.25
 21
4795844.63
 31
0.0
 73
     3
  0
TEXT
  5
1C6
  8
PS02-AS
 10
352933.25
 20
4795844.63
 30
0.0
 40
0.4
  1
6
 72
     1
 11
352933.25
 21
4795844.63
 31
0.0
 73
     1
  0
TEXT
  5
1C7
  8
PS02-AU
 10
352939.12
 20
4795859.46
 30
0.0
 40
0.4
  1
V.03
 72
     1
 11
352939.12
 21
4795859.46
 31
0.0
 73
     3
  0
TEXT
  5
1C8
  8
PS02-AS
 10
352939.12
 20
4795859.46
 30
0.0
 40
0.4
  1
68
 72
     1
 11
352939.12
 21
4795859.46
 31
0.0
 73
     1
  0
TEXT
  5
1C9
  8
PS02-AU
 10
352934.02
 20
4795831.28
 30
0.0
 40
0.4
  1
YPO.07
 72
     1
 11
352934.02
 21
4795831.28
 31
0.0
 73
     3
  0
TEXT
  5
1CA
  8
PS02-AS
 10
352934.02
 20
4795831.28
 30
0.0
 40
0.4
  1
6
 72
     1
 11
352934.02
 21
4795831.28
 31
0.0
 73
     1
  0
TEXT
  5
1CB
  8
PS02-AU
 10
352941.72
 20
4795846.14
 30
0.0
 40
0.4
  1
V.05
 72
     1
 11
352941.72
 21
4795846.14
 31
0.0
 73
     3
  0
TEXT
  5
1CC
  8
PS02-AS
 10
352941.72
 20
4795846.14
 30
0.0
 40
0.4
  1
68
 72
     1
 11
352941.72
 21
4795846.14
 31
0.0
 73
     1
  0
TEXT
  5
1CD
  8
PS02-AU
 10
352934.37
 20
4795865.72
 30
0.0
 40
0.4
  1
YPO.02
 72
     1
 11
352934.37
 21
4795865.72
 31
0.0
 73
     3
  0
TEXT
  5
1CE
  8
PS02-AS
 10
352934.37
 20
4795865.72
 30
0.0
 40
0.4
  1
6
 72
     1
 11
352934.37
 21
4795865.72
 31
0.0
 73
     1
  0
TEXT
  5
1CF
  8
PS02-AU
 10
352940.74
 20
4795832.49
 30
0.0
 40
0.4
  1
V.07
 72
     1
 11
352940.74
 21
4795832.49
 31
0.0
 73
     3
  0
TEXT
  5
1D0
  8
PS02-AS
 10
352940.74
 20
4795832.49
 30
0.0
 40
0.4
  1
68
 72
     1
 11
352940.74
 21
4795832.49
 31
0.0
 73
     1
  0
TEXT
  5
1D1
  8
PS02-AU
 10
352935.13
 20
4795852.37
 30
0.0
 40
0.4
  1
YPO.04
 72
     1
 11
352935.13
 21
4795852.37
 31
0.0
 73
     3
  0
TEXT
  5
1D2
  8
PS02-AS
 10
352935.13
 20
4795852.37
 30
0.0
 40
0.4
  1
6
 72
     1
 11
352935.13
 21
4795852.37
 31
0.0
 73
     1
  0
TEXT
  5
1D3
  8
PS02-AU
 10
352940.3
 20
4795866.88
 30
0.0
 40
0.4
  1
V.02
 72
     1
 11
352940.3
 21
4795866.88
 31
0.0
 73
     3
  0
TEXT
  5
1D4
  8
PS02-AS
 10
352940.3
 20
4795866.88
 30
0.0
 40
0.4
  1
68
 72
     1
 11
352940.3
 21
4795866.88
 31
0.0
 73
     1
  0
TEXT
  5
1D5
  8
PS02-AU
 10
352935.9
 20
4795839.03
 30
0.0
 40
0.4
  1
YPO.06
 72
     1
 11
352935.9
 21
4795839.03
 31
0.0
 73
     3
  0
TEXT
  5
1D6
  8
PS02-AS
 10
352935.9
 20
4795839.03
 30
0.0
 40
0.4
  1
6
 72
     1
 11
352935.9
 21
4795839.03
 31
0.0
 73
     1
  0
TEXT
  5
1D7
  8
PS02-AU
 10
352941.26
 20
4795853.59
 30
0.0
 40
0.4
  1
V.04
 72
     1
 11
352941.26
 21
4795853.59
 31
0.0
 73
     3
  0
TEXT
  5
1D8
  8
PS02-AS
 10
352941.26
 20
4795853.59
 30
0.0
 40
0.4
  1
68
 72
     1
 11
352941.26
 21
4795853.59
 31
0.0
 73
     1
  0
TEXT
  5
1D9
  8
PS02-AU
 10
352942.72
 20
4795840.37
 30
0.0
 40
0.4
  1
V.06
 72
     1
 11
352942.72
 21
4795840.37
 31
0.0
 73
     3
  0
TEXT
  5
1DA
  8
PS02-AS
 10
352942.72
 20
4795840.37
 30
0.0
 40
0.4
  1
68
 72
     1
 11
352942.72
 21
4795840.37
 31
0.0
 73
     1
  0
TEXT
  5
1DB
  8
PS02-AU
 10
352951.88
 20
4795864.72
 30
0.0
 40
0.4
  1
PTO.03
 72
     1
 11
352951.88
 21
4795864.72
 31
0.0
 73
     3
  0
TEXT
  5
1DC
  8
PS02-AS
 10
352951.88
 20
4795864.72
 30
0.0
 40
0.4
  1
87
 72
     1
 11
352951.88
 21
4795864.72
 31
0.0
 73
     1
  0
TEXT
  5
1DD
  8
PS02-AU
 10
352950.62
 20
4795849.89
 30
0.0
 40
0.4
  1
PTO.05
 72
     1
 11
352950.62
 21
4795849.89
 31
0.0
 73
     3
  0
TEXT
  5
1DE
  8
PS02-AS
 10
352950.62
 20
4795849.89
 30
0.0
 40
0.4
  1
94
 72
     1
 11
352950.62
 21
4795849.89
 31
0.0
 73
     1
  0
TEXT
  5
1DF
  8
PS02-AU
 10
352950.25
 20
4795870.07
 30
0.0
 40
0.4
  1
PTO.02
 72
     1
 11
352950.25
 21
4795870.07
 31
0.0
 73
     3
  0
TEXT
  5
1E0
  8
PS02-AS
 10
352950.25
 20
4795870.07
 30
0.0
 40
0.4
  1
51
 72
     1
 11
352950.25
 21
4795870.07
 31
0.0
 73
     1
  0
TEXT
  5
1E1
  8
PS02-AU
 10
352953.51
 20
4795859.13
 30
0.0
 40
0.4
  1
PTO.04
 72
     1
 11
352953.51
 21
4795859.13
 31
0.0
 73
     3
  0
TEXT
  5
1E2
  8
PS02-AS
 10
352953.51
 20
4795859.13
 30
0.0
 40
0.4
  1
83
 72
     1
 11
352953.51
 21
4795859.13
 31
0.0
 73
     1
  0
TEXT
  5
1E3
  8
PS02-AU
 10
352966.06
 20
4795871.02
 30
0.0
 40
0.4
  1
PTO
 72
     1
 11
352966.06
 21
4795871.02
 31
0.0
 73
     3
  0
TEXT
  5
1E4
  8
PS02-AS
 10
352966.06
 20
4795871.02
 30
0.0
 40
0.4
  1
410
 72
     1
 11
352966.06
 21
4795871.02
 31
0.0
 73
     1
  0
TEXT
  5
1E5
  8
PS02-AU
 10
352950.9
 20
4795842.39
 30
0.0
 40
0.4
  1
PTO.06
 72
     1
 11
352950.9
 21
4795842.39
 31
0.0
 73
     3
  0
TEXT
  5
1E6
  8
PS02-AS
 10
352950.9
 20
4795842.39
 30
0.0
 40
0.4
  1
77
 72
     1
 11
352950.9
 21
4795842.39
 31
0.0
 73
     1
  0
TEXT
  5
1E7
  8
PS02-AU
 10
352954.81
 20
4795847.61
 30
0.0
 40
0.4
  1
KPS.06
 72
     1
 11
352954.81
 21
4795847.61
 31
0.0
 73
     3
  0
TEXT
  5
1E8
  8
PS02-AS
 10
352954.81
 20
4795847.61
 30
0.0
 40
0.4
  1
18
 72
     1
 11
352954.81
 21
4795847.61
 31
0.0
 73
     1
  0
LINE
  5
1E9
  8
PS02-LI
 10
352932.7185
 20
4795866.2655
 30
0.0
 11
352923.868
 21
4795862.0955
 31
0.0
  0
POLYLINE
  5
1EA
  8
PS02-LP
 66
     1
 10
0.0
 20
0.0
 30
0.0
  0
VERTEX
  5
43B
  8
PS02-LP
 10
352923.868
 20
4795862.0955
 30
0.0
  0
VERTEX
  5
43C
  8
PS02-LP
 10
352922.178
 20
4795892.946
 30
0.0
  0
VERTEX
  5
43D
  8
PS02-LP
 10
352922.1385
 20
4795894.646
 30
0.0
  0
VERTEX
  5
43E
  8
PS02-LP
 10
352922.218
 20
4795893.646
 30
0.0
  0
VERTEX
  5
43F
  8
PS02-LP
 10
352923.488
 20
4795886.956
 30
0.0
  0
VERTEX
  5
440
  8
PS02-LP
 10
352927.8885
 20
4795878.2955
 30
0.0
  0
VERTEX
  5
441
  8
PS02-LP
 10
352946.979
 20
4795884.4955
 30
0.0
  0
VERTEX
  5
442
  8
PS02-LP
 10
352951.549
 20
4795874.2455
 30
0.0
  0
VERTEX
  5
443
  8
PS02-LP
 10
352952.939
 20
4795874.8355
 30
0.0
  0
SEQEND
  5
43A
  8
PS02-LP
  0
LINE
  5
1F5
  8
PS02-LP
 10
352924.228
 20
4795855.4155
 30
0.0
 11
352923.868
 21
4795862.0955
 31
0.0
  0
LINE
  5
1F6
  8
PS02-LI
 10
352930.838
 20
4795858.5255
 30
0.0
 11
352924.228
 21
4795855.4155
 31
0.0
  0
LINE
  5
1F7
  8
PS02-LP
 10
352924.598
 20
4795848.735
 30
0.0
 11
352924.228
 21
4795855.4155
 31
0.0
  0
LINE
  5
1F8
  8
PS02-LI
 10
352933.488
 20
4795852.925
 30
0.0
 11
352924.598
 21
4795848.735
 31
0.0
  0
LINE
  5
1F9
  8
PS02-LP
 10
352924.958
 20
4795842.045
 30
0.0
 11
352924.598
 21
4795848.735
 31
0.0
  0
LINE
  5
1FA
  8
PS02-LI
 10
352931.608
 20
4795845.185
 30
0.0
 11
352924.958
 21
4795842.045
 31
0.0
  0
LINE
  5
1FB
  8
PS02-LP
 10
352925.328
 20
4795835.365
 30
0.0
 11
352924.958
 21
4795842.045
 31
0.0
  0
LINE
  5
1FC
  8
PS02-LI
 10
352934.258
 20
4795839.575
 30
0.0
 11
352925.328
 21
4795835.365
 31
0.0
  0
LINE
  5
1FD
  8
PS02-LP
 10
352925.688
 20
4795828.685
 30
0.0
 11
352925.328
 21
4795835.365
 31
0.0
  0
LINE
  5
1FE
  8
PS02-LI
 10
352932.378
 20
4795831.835
 30
0.0
 11
352925.688
 21
4795828.685
 31
0.0
  0
POLYLINE
  5
1FF
  8
PS02-LP
 66
     1
 10
0.0
 20
0.0
 30
0.0
  0
VERTEX
  5
445
  8
PS02-LP
 10
352964.129
 20
4795846.805
 30
0.0
  0
VERTEX
  5
446
  8
PS02-LP
 10
352968.679
 20
4795838.745
 30
0.0
  0
VERTEX
  5
447
  8
PS02-LP
 10
352959.379
 20
4795835.525
 30
0.0
  0
VERTEX
  5
448
  8
PS02-LP
 10
352958.1685
 20
4795834.935
 30
0.0
  0
VERTEX
  5
449
  8
PS02-LP
 10
352949.8385
 20
4795830.755
 30
0.0
  0
VERTEX
  5
44A
  8
PS02-LP
 10
352937.418
 20
4795824.855
 30
0.0
  0
VERTEX
  5
44B
  8
PS02-LP
 10
352926.248
 20
4795818.465
 30
0.0
  0
VERTEX
  5
44C
  8
PS02-LP
 10
352925.688
 20
4795828.685
 30
0.0
  0
SEQEND
  5
444
  8
PS02-LP
  0
LINE
  5
209
  8
PS02-LI
 10
352933.1085
 20
4795859.5955
 30
0.0
 11
352930.838
 21
4795858.5255
 31
0.0
  0
LINE
  5
20A
  8
PS02-LI
 10
352930.838
 20
4795858.5255
 30
0.0
 11
352931.868
 21
4795856.3655
 31
0.0
  0
POLYLINE
  5
20B
  8
PS02-LI
 66
     1
 10
0.0
 20
0.0
 30
0.0
  0
VERTEX
  5
44E
  8
PS02-LI
 10
352932.3385
 20
4795872.9455
 30
0.0
  0
VERTEX
  5
44F
  8
PS02-LI
 10
352933.3585
 20
4795870.7755
 30
0.0
  0
VERTEX
  5
450
  8
PS02-LI
 10
352931.0985
 20
4795869.7055
 30
0.0
  0
SEQEND
  5
44D
  8
PS02-LI
  0
POLYLINE
  5
210
  8
PS02-LI
 66
     1
 10
0.0
 20
0.0
 30
0.0
  0
VERTEX
  5
452
  8
PS02-LI
 10
352932.3385
 20
4795872.9455
 30
0.0
  0
VERTEX
  5
453
  8
PS02-LI
 10
352930.0785
 20
4795871.8755
 30
0.0
  0
VERTEX
  5
454
  8
PS02-LI
 10
352931.0985
 20
4795869.7055
 30
0.0
  0
SEQEND
  5
451
  8
PS02-LI
  0
LINE
  5
215
  8
PS02-LI
 10
352931.0985
 20
4795869.7055
 30
0.0
 11
352931.4385
 21
4795868.9855
 31
0.0
  0
LINE
  5
216
  8
PS02-LI
 10
352931.4385
 20
4795868.9855
 30
0.0
 11
352932.7185
 21
4795866.2655
 31
0.0
  0
LINE
  5
217
  8
PS02-LI
 10
352933.868
 20
4795846.245
 30
0.0
 11
352931.608
 21
4795845.185
 31
0.0
  0
LINE
  5
218
  8
PS02-LI
 10
352931.608
 20
4795845.185
 30
0.0
 11
352932.638
 21
4795843.015
 31
0.0
  0
POLYLINE
  5
219
  8
PS02-LI
 66
     1
 10
0.0
 20
0.0
 30
0.0
  0
VERTEX
  5
456
  8
PS02-LI
 10
352933.1085
 20
4795859.5955
 30
0.0
  0
VERTEX
  5
457
  8
PS02-LI
 10
352934.1285
 20
4795857.4255
 30
0.0
  0
VERTEX
  5
458
  8
PS02-LI
 10
352931.868
 20
4795856.3655
 30
0.0
  0
SEQEND
  5
455
  8
PS02-LI
  0
LINE
  5
21E
  8
PS02-LI
 10
352931.868
 20
4795856.3655
 30
0.0
 11
352932.208
 21
4795855.6355
 31
0.0
  0
LINE
  5
21F
  8
PS02-LI
 10
352932.208
 20
4795855.6355
 30
0.0
 11
352933.488
 21
4795852.925
 31
0.0
  0
LINE
  5
220
  8
PS02-LI
 10
352941.2985
 20
4795877.1655
 30
0.0
 11
352932.3385
 21
4795872.9455
 31
0.0
  0
LINE
  5
221
  8
PS02-LI
 10
352934.638
 20
4795832.905
 30
0.0
 11
352932.378
 21
4795831.835
 31
0.0
  0
LINE
  5
222
  8
PS02-LI
 10
352932.378
 20
4795831.835
 30
0.0
 11
352933.398
 21
4795829.665
 31
0.0
  0
POLYLINE
  5
223
  8
PS02-LI
 66
     1
 10
0.0
 20
0.0
 30
0.0
  0
VERTEX
  5
45A
  8
PS02-LI
 10
352933.868
 20
4795846.245
 30
0.0
  0
VERTEX
  5
45B
  8
PS02-LI
 10
352934.898
 20
4795844.075
 30
0.0
  0
VERTEX
  5
45C
  8
PS02-LI
 10
352932.638
 20
4795843.015
 30
0.0
  0
SEQEND
  5
459
  8
PS02-LI
  0
LINE
  5
228
  8
PS02-LI
 10
352932.638
 20
4795843.015
 30
0.0
 11
352932.978
 21
4795842.285
 31
0.0
  0
POLYLINE
  5
229
  8
PS02-LI
 66
     1
 10
0.0
 20
0.0
 30
0.0
  0
VERTEX
  5
45E
  8
PS02-LI
 10
352934.9885
 20
4795867.3355
 30
0.0
  0
VERTEX
  5
45F
  8
PS02-LI
 10
352934.4385
 20
4795867.0755
 30
0.0
  0
VERTEX
  5
460
  8
PS02-LI
 10
352934.2585
 20
4795866.9955
 30
0.0
  0
VERTEX
  5
461
  8
PS02-LI
 10
352932.7185
 20
4795866.2655
 30
0.0
  0
SEQEND
  5
45D
  8
PS02-LI
  0
LINE
  5
22F
  8
PS02-LI
 10
352932.7185
 20
4795866.2655
 30
0.0
 11
352933.7385
 21
4795864.1055
 31
0.0
  0
LINE
  5
230
  8
PS02-LI
 10
352932.978
 20
4795842.285
 30
0.0
 11
352934.258
 21
4795839.575
 31
0.0
  0
LINE
  5
231
  8
PS02-LI
 10
352935.3685
 20
4795860.6655
 30
0.0
 11
352933.1085
 21
4795859.5955
 31
0.0
  0
POLYLINE
  5
232
  8
PS02-LI
 66
     1
 10
0.0
 20
0.0
 30
0.0
  0
VERTEX
  5
463
  8
PS02-LI
 10
352934.638
 20
4795832.905
 30
0.0
  0
VERTEX
  5
464
  8
PS02-LI
 10
352935.658
 20
4795830.735
 30
0.0
  0
VERTEX
  5
465
  8
PS02-LI
 10
352933.398
 20
4795829.665
 30
0.0
  0
SEQEND
  5
462
  8
PS02-LI
  0
POLYLINE
  5
237
  8
PS02-LI
 66
     1
 10
0.0
 20
0.0
 30
0.0
  0
VERTEX
  5
467
  8
PS02-LI
 10
352933.398
 20
4795829.665
 30
0.0
  0
VERTEX
  5
468
  8
PS02-LI
 10
352933.738
 20
4795828.945
 30
0.0
  0
VERTEX
  5
469
  8
PS02-LI
 10
352935.018
 20
4795826.225
 30
0.0
  0
VERTEX
  5
46A
  8
PS02-LI
 10
352936.738
 20
4795827.035
 30
0.0
  0
VERTEX
  5
46B
  8
PS02-LI
 10
352941.7185
 20
4795829.385
 30
0.0
  0
VERTEX
  5
46C
  8
PS02-LI
 10
352945.3285
 20
4795831.085
 30
0.0
  0
VERTEX
  5
46D
  8
PS02-LI
 10
352944.0285
 20
4795833.845
 30
0.0
  0
VERTEX
  5
46E
  8
PS02-LI
 10
352944.9385
 20
4795834.275
 30
0.0
  0
VERTEX
  5
46F
  8
PS02-LI
 10
352943.5885
 20
4795837.125
 30
0.0
  0
SEQEND
  5
466
  8
PS02-LI
  0
POLYLINE
  5
242
  8
PS02-LI
 66
     1
 10
0.0
 20
0.0
 30
0.0
  0
VERTEX
  5
471
  8
PS02-LI
 10
352935.7485
 20
4795853.985
 30
0.0
  0
VERTEX
  5
472
  8
PS02-LI
 10
352935.2085
 20
4795853.735
 30
0.0
  0
VERTEX
  5
473
  8
PS02-LI
 10
352935.0285
 20
4795853.645
 30
0.0
  0
VERTEX
  5
474
  8
PS02-LI
 10
352933.488
 20
4795852.925
 30
0.0
  0
SEQEND
  5
470
  8
PS02-LI
  0
LINE
  5
248
  8
PS02-LI
 10
352933.488
 20
4795852.925
 30
0.0
 11
352934.5085
 21
4795850.745
 31
0.0
  0
POLYLINE
  5
249
  8
PS02-LI
 66
     1
 10
0.0
 20
0.0
 30
0.0
  0
VERTEX
  5
476
  8
PS02-LI
 10
352934.9885
 20
4795867.3355
 30
0.0
  0
VERTEX
  5
477
  8
PS02-LI
 10
352936.0085
 20
4795865.1755
 30
0.0
  0
VERTEX
  5
478
  8
PS02-LI
 10
352933.7385
 20
4795864.1055
 30
0.0
  0
SEQEND
  5
475
  8
PS02-LI
  0
LINE
  5
24E
  8
PS02-LI
 10
352933.7385
 20
4795864.1055
 30
0.0
 11
352934.0885
 21
4795863.3755
 31
0.0
  0
LINE
  5
24F
  8
PS02-LI
 10
352936.1285
 20
4795847.315
 30
0.0
 11
352933.868
 21
4795846.245
 31
0.0
  0
LINE
  5
250
  8
PS02-LI
 10
352934.0885
 20
4795863.3755
 30
0.0
 11
352935.3685
 21
4795860.6655
 31
0.0
  0
POLYLINE
  5
251
  8
PS02-LI
 66
     1
 10
0.0
 20
0.0
 30
0.0
  0
VERTEX
  5
47A
  8
PS02-LI
 10
352936.518
 20
4795840.645
 30
0.0
  0
VERTEX
  5
47B
  8
PS02-LI
 10
352935.968
 20
4795840.385
 30
0.0
  0
VERTEX
  5
47C
  8
PS02-LI
 10
352935.788
 20
4795840.295
 30
0.0
  0
VERTEX
  5
47D
  8
PS02-LI
 10
352934.258
 20
4795839.575
 30
0.0
  0
SEQEND
  5
479
  8
PS02-LI
  0
LINE
  5
257
  8
PS02-LI
 10
352934.258
 20
4795839.575
 30
0.0
 11
352935.278
 21
4795837.405
 31
0.0
  0
POLYLINE
  5
258
  8
PS02-LI
 66
     1
 10
0.0
 20
0.0
 30
0.0
  0
VERTEX
  5
47F
  8
PS02-LI
 10
352935.7485
 20
4795853.985
 30
0.0
  0
VERTEX
  5
480
  8
PS02-LI
 10
352936.7685
 20
4795851.815
 30
0.0
  0
VERTEX
  5
481
  8
PS02-LI
 10
352934.5085
 20
4795850.745
 30
0.0
  0
SEQEND
  5
47E
  8
PS02-LI
  0
LINE
  5
25D
  8
PS02-LI
 10
352934.5085
 20
4795850.745
 30
0.0
 11
352934.8485
 21
4795850.025
 31
0.0
  0
LINE
  5
25E
  8
PS02-LI
 10
352936.888
 20
4795833.965
 30
0.0
 11
352934.638
 21
4795832.905
 31
0.0
  0
LINE
  5
25F
  8
PS02-LI
 10
352934.8485
 20
4795850.025
 30
0.0
 11
352936.1285
 21
4795847.315
 31
0.0
  0
LINE
  5
260
  8
PS02-LI
 10
352943.0385
 20
4795871.1355
 30
0.0
 11
352934.9885
 21
4795867.3355
 31
0.0
  0
POLYLINE
  5
261
  8
PS02-LI
 66
     1
 10
0.0
 20
0.0
 30
0.0
  0
VERTEX
  5
483
  8
PS02-LI
 10
352936.518
 20
4795840.645
 30
0.0
  0
VERTEX
  5
484
  8
PS02-LI
 10
352937.538
 20
4795838.475
 30
0.0
  0
VERTEX
  5
485
  8
PS02-LI
 10
352935.278
 20
4795837.405
 30
0.0
  0
SEQEND
  5
482
  8
PS02-LI
  0
LINE
  5
266
  8
PS02-LI
 10
352935.278
 20
4795837.405
 30
0.0
 11
352935.618
 21
4795836.675
 31
0.0
  0
POLYLINE
  5
267
  8
PS02-LI
 66
     1
 10
0.0
 20
0.0
 30
0.0
  0
VERTEX
  5
487
  8
PS02-LI
 10
352935.3685
 20
4795860.6655
 30
0.0
  0
VERTEX
  5
488
  8
PS02-LI
 10
352936.8985
 20
4795861.3855
 30
0.0
  0
VERTEX
  5
489
  8
PS02-LI
 10
352937.0885
 20
4795861.4755
 30
0.0
  0
VERTEX
  5
48A
  8
PS02-LI
 10
352942.0585
 20
4795863.8155
 30
0.0
  0
SEQEND
  5
486
  8
PS02-LI
  0
LINE
  5
26D
  8
PS02-LI
 10
352935.618
 20
4795836.675
 30
0.0
 11
352936.888
 21
4795833.965
 31
0.0
  0
LINE
  5
26E
  8
PS02-LI
 10
352943.7985
 20
4795857.785
 30
0.0
 11
352935.7485
 21
4795853.985
 31
0.0
  0
POLYLINE
  5
26F
  8
PS02-LI
 66
     1
 10
0.0
 20
0.0
 30
0.0
  0
VERTEX
  5
48C
  8
PS02-LI
 10
352936.1285
 20
4795847.315
 30
0.0
  0
VERTEX
  5
48D
  8
PS02-LI
 10
352937.6685
 20
4795848.035
 30
0.0
  0
VERTEX
  5
48E
  8
PS02-LI
 10
352937.8485
 20
4795848.125
 30
0.0
  0
VERTEX
  5
48F
  8
PS02-LI
 10
352942.8285
 20
4795850.465
 30
0.0
  0
SEQEND
  5
48B
  8
PS02-LI
  0
LINE
  5
275
  8
PS02-LI
 10
352944.5685
 20
4795844.435
 30
0.0
 11
352936.518
 21
4795840.645
 31
0.0
  0
POLYLINE
  5
276
  8
PS02-LI
 66
     1
 10
0.0
 20
0.0
 30
0.0
  0
VERTEX
  5
491
  8
PS02-LI
 10
352936.888
 20
4795833.965
 30
0.0
  0
VERTEX
  5
492
  8
PS02-LI
 10
352938.438
 20
4795834.695
 30
0.0
  0
VERTEX
  5
493
  8
PS02-LI
 10
352938.6185
 20
4795834.775
 30
0.0
  0
SEQEND
  5
490
  8
PS02-LI
  0
LINE
  5
27B
  8
PS02-LI
 10
352938.6185
 20
4795834.775
 30
0.0
 11
352943.5885
 21
4795837.125
 31
0.0
  0
POLYLINE
  5
27C
  8
PS02-LI
 66
     1
 10
0.0
 20
0.0
 30
0.0
  0
VERTEX
  5
495
  8
PS02-LI
 10
352943.0385
 20
4795871.1355
 30
0.0
  0
VERTEX
  5
496
  8
PS02-LI
 10
352941.7385
 20
4795873.8855
 30
0.0
  0
VERTEX
  5
497
  8
PS02-LI
 10
352942.6385
 20
4795874.3155
 30
0.0
  0
VERTEX
  5
498
  8
PS02-LI
 10
352941.2985
 20
4795877.1655
 30
0.0
  0
SEQEND
  5
494
  8
PS02-LI
  0
LINE
  5
282
  8
PS02-LI
 10
352945.6785
 20
4795865.5255
 30
0.0
 11
352942.0585
 21
4795863.8155
 31
0.0
  0
POLYLINE
  5
283
  8
PS02-LI
 66
     1
 10
0.0
 20
0.0
 30
0.0
  0
VERTEX
  5
49A
  8
PS02-LI
 10
352942.0585
 20
4795863.8155
 30
0.0
  0
VERTEX
  5
49B
  8
PS02-LI
 10
352943.3985
 20
4795860.9655
 30
0.0
  0
VERTEX
  5
49C
  8
PS02-LI
 10
352942.4985
 20
4795860.5455
 30
0.0
  0
SEQEND
  5
499
  8
PS02-LI
  0
LINE
  5
288
  8
PS02-LI
 10
352942.4985
 20
4795860.5455
 30
0.0
 11
352943.7985
 21
4795857.785
 31
0.0
  0
LINE
  5
289
  8
PS02-LI
 10
352946.4385
 20
4795852.175
 30
0.0
 11
352942.8285
 21
4795850.465
 31
0.0
  0
POLYLINE
  5
28A
  8
PS02-LI
 66
     1
 10
0.0
 20
0.0
 30
0.0
  0
VERTEX
  5
49E
  8
PS02-LI
 10
352942.8285
 20
4795850.465
 30
0.0
  0
VERTEX
  5
49F
  8
PS02-LI
 10
352944.1685
 20
4795847.625
 30
0.0
  0
VERTEX
  5
4A0
  8
PS02-LI
 10
352943.2685
 20
4795847.195
 30
0.0
  0
SEQEND
  5
49D
  8
PS02-LI
  0
LINE
  5
28F
  8
PS02-LI
 10
352943.9385
 20
4795871.5555
 30
0.0
 11
352943.0385
 21
4795871.1355
 31
0.0
  0
LINE
  5
290
  8
PS02-LI
 10
352943.2685
 20
4795847.195
 30
0.0
 11
352944.5685
 21
4795844.435
 31
0.0
  0
LINE
  5
291
  8
PS02-LI
 10
352943.5885
 20
4795837.125
 30
0.0
 11
352947.2085
 21
4795838.825
 31
0.0
  0
LINE
  5
292
  8
PS02-LI
 10
352943.7985
 20
4795857.785
 30
0.0
 11
352944.6985
 21
4795858.205
 31
0.0
  0
POLYLINE
  5
293
  8
PS02-LI
 66
     1
 10
0.0
 20
0.0
 30
0.0
  0
VERTEX
  5
4A2
  8
PS02-LI
 10
352953.489
 20
4795873.2255
 30
0.0
  0
VERTEX
  5
4A3
  8
PS02-LI
 10
352950.489
 20
4795871.8155
 30
0.0
  0
VERTEX
  5
4A4
  8
PS02-LI
 10
352949.569
 20
4795873.7555
 30
0.0
  0
VERTEX
  5
4A5
  8
PS02-LI
 10
352943.9385
 20
4795871.5555
 30
0.0
  0
SEQEND
  5
4A1
  8
PS02-LI
  0
POLYLINE
  5
299
  8
PS02-LI
 66
     1
 10
0.0
 20
0.0
 30
0.0
  0
VERTEX
  5
4A7
  8
PS02-LI
 10
352943.9385
 20
4795871.5555
 30
0.0
  0
VERTEX
  5
4A8
  8
PS02-LI
 10
352945.2785
 20
4795868.7055
 30
0.0
  0
VERTEX
  5
4A9
  8
PS02-LI
 10
352944.3785
 20
4795868.2855
 30
0.0
  0
SEQEND
  5
4A6
  8
PS02-LI
  0
LINE
  5
29E
  8
PS02-LI
 10
352944.3785
 20
4795868.2855
 30
0.0
 11
352945.6785
 21
4795865.5255
 31
0.0
  0
LINE
  5
29F
  8
PS02-LI
 10
352944.5685
 20
4795844.435
 30
0.0
 11
352945.4685
 21
4795844.865
 31
0.0
  0
LINE
  5
2A0
  8
PS02-LI
 10
352956.709
 20
4795863.865
 30
0.0
 11
352944.6985
 21
4795858.205
 31
0.0
  0
POLYLINE
  5
2A1
  8
PS02-LI
 66
     1
 10
0.0
 20
0.0
 30
0.0
  0
VERTEX
  5
4AB
  8
PS02-LI
 10
352944.6985
 20
4795858.205
 30
0.0
  0
VERTEX
  5
4AC
  8
PS02-LI
 10
352946.0485
 20
4795855.355
 30
0.0
  0
VERTEX
  5
4AD
  8
PS02-LI
 10
352945.1385
 20
4795854.935
 30
0.0
  0
SEQEND
  5
4AA
  8
PS02-LI
  0
LINE
  5
2A6
  8
PS02-LI
 10
352945.1385
 20
4795854.935
 30
0.0
 11
352946.4385
 21
4795852.175
 31
0.0
  0
LINE
  5
2A7
  8
PS02-LI
 10
352951.4544
 20
4795847.6833
 30
0.0
 11
352945.4685
 21
4795844.865
 31
0.0
  0
POLYLINE
  5
2A8
  8
PS02-LI
 66
     1
 10
0.0
 20
0.0
 30
0.0
  0
VERTEX
  5
4AF
  8
PS02-LI
 10
352945.4685
 20
4795844.865
 30
0.0
  0
VERTEX
  5
4B0
  8
PS02-LI
 10
352946.8085
 20
4795842.015
 30
0.0
  0
VERTEX
  5
4B1
  8
PS02-LI
 10
352945.9085
 20
4795841.585
 30
0.0
  0
SEQEND
  5
4AE
  8
PS02-LI
  0
LINE
  5
2AD
  8
PS02-LI
 10
352945.6785
 20
4795865.5255
 30
0.0
 11
352954.679
 21
4795869.7655
 31
0.0
  0
LINE
  5
2AE
  8
PS02-LI
 10
352945.9085
 20
4795841.585
 30
0.0
 11
352947.2085
 21
4795838.825
 31
0.0
  0
LINE
  5
2AF
  8
PS02-LI
 10
352946.4385
 20
4795852.175
 30
0.0
 11
352955.949
 21
4795856.655
 31
0.0
  0
LINE
  5
2B0
  8
PS02-LI
 10
352947.2085
 20
4795838.825
 30
0.0
 11
352961.549
 21
4795845.585
 31
0.0
  0
LINE
  5
2B1
  8
PS02-LI
 10
352953.2875
 20
4795848.5464
 30
0.0
 11
352951.4544
 21
4795847.6833
 31
0.0
  0
POLYLINE
  5
2B2
  8
PS02-LI
 66
     1
 10
0.0
 20
0.0
 30
0.0
  0
VERTEX
  5
4B3
  8
PS02-LI
 10
352951.4544
 20
4795847.6833
 30
0.0
  0
VERTEX
  5
4B4
  8
PS02-LI
 10
352952.7439
 20
4795844.9746
 30
0.0
  0
VERTEX
  5
4B5
  8
PS02-LI
 10
352958.1614
 20
4795847.5534
 30
0.0
  0
VERTEX
  5
4B6
  8
PS02-LI
 10
352956.8824
 20
4795850.239
 30
0.0
  0
SEQEND
  5
4B2
  8
PS02-LI
  0
POLYLINE
  5
2B8
  8
PS02-LP
 66
     1
 10
0.0
 20
0.0
 30
0.0
  0
VERTEX
  5
4B8
  8
PS02-LP
 10
352952.939
 20
4795874.8355
 30
0.0
  0
VERTEX
  5
4B9
  8
PS02-LP
 10
352961.759
 20
4795878.5555
 30
0.0
  0
VERTEX
  5
4BA
  8
PS02-LP
 10
352972.8395
 20
4795879.0455
 30
0.0
  0
VERTEX
  5
4BB
  8
PS02-LP
 10
352977.9895
 20
4795864.105
 30
0.0
  0
VERTEX
  5
4BC
  8
PS02-LP
 10
352968.139
 20
4795859.705
 30
0.0
  0
VERTEX
  5
4BD
  8
PS02-LP
 10
352958.759
 20
4795856.305
 30
0.0
  0
VERTEX
  5
4BE
  8
PS02-LP
 10
352964.129
 20
4795846.805
 30
0.0
  0
SEQEND
  5
4B7
  8
PS02-LP
  0
LINE
  5
2C1
  8
PS02-LI
 10
352952.939
 20
4795874.8355
 30
0.0
 11
352953.489
 21
4795873.2255
 31
0.0
  0
POLYLINE
  5
2C2
  8
PS02-LI
 66
     1
 10
0.0
 20
0.0
 30
0.0
  0
VERTEX
  5
4C0
  8
PS02-LI
 10
352956.8824
 20
4795850.239
 30
0.0
  0
VERTEX
  5
4C1
  8
PS02-LI
 10
352956.062
 20
4795849.8527
 30
0.0
  0
VERTEX
  5
4C2
  8
PS02-LI
 10
352953.2875
 20
4795848.5464
 30
0.0
  0
SEQEND
  5
4BF
  8
PS02-LI
  0
LINE
  5
2C7
  8
PS02-LI
 10
352953.489
 20
4795873.2255
 30
0.0
 11
352954.679
 21
4795869.7655
 31
0.0
  0
LINE
  5
2C8
  8
PS02-LI
 10
352954.679
 20
4795869.7655
 30
0.0
 11
352956.709
 21
4795863.865
 31
0.0
  0
LINE
  5
2C9
  8
PS02-LI
 10
352958.749
 20
4795857.975
 30
0.0
 11
352955.949
 21
4795856.655
 31
0.0
  0
LINE
  5
2CA
  8
PS02-LI
 10
352955.949
 20
4795856.655
 30
0.0
 11
352958.849
 21
4795851.165
 31
0.0
  0
LINE
  5
2CB
  8
PS02-LI
 10
352956.709
 20
4795863.865
 30
0.0
 11
352958.749
 21
4795857.975
 31
0.0
  0
LINE
  5
2CC
  8
PS02-LI
 10
352958.849
 20
4795851.165
 30
0.0
 11
352956.8824
 21
4795850.239
 31
0.0
  0
LINE
  5
2CD
  8
PS02-LI
 10
352961.549
 20
4795845.585
 30
0.0
 11
352958.849
 21
4795851.165
 31
0.0
  0
LINE
  5
2CE
  8
PS02-LI
 10
352961.549
 20
4795845.585
 30
0.0
 11
352964.129
 21
4795846.805
 31
0.0
  0
LINE
  5
2CF
  8
PS02-CO
 10
352961.41
 20
4795879.39
 30
0.0
 11
352952.59
 21
4795875.67
 31
0.0
  0
LINE
  5
2D0
  8
PS02-CO
 10
352972.8
 20
4795879.95
 30
0.0
 11
352961.72
 21
4795879.46
 31
0.0
  0
LINE
  5
2D1
  8
PS02-CO
 10
352978.84
 20
4795864.4
 30
0.0
 11
352973.69
 21
4795879.34
 31
0.0
  0
LINE
  5
2D2
  8
PS02-CO
 10
352968.51
 20
4795858.89
 30
0.0
 11
352978.36
 21
4795863.29
 31
0.0
  0
LINE
  5
2D3
  8
PS02-CO
 10
352959.07
 20
4795855.46
 30
0.0
 11
352968.45
 21
4795858.86
 31
0.0
  0
LINE
  5
2D4
  8
PS02-CO
 10
352969.46
 20
4795839.18
 30
0.0
 11
352959.54
 21
4795856.75
 31
0.0
  0
LINE
  5
2D5
  8
PS02-CO
 10
352959.67
 20
4795834.67
 30
0.0
 11
352968.97
 21
4795837.89
 31
0.0
  0
LINE
  5
2D6
  8
PS02-CO
 10
352950.24
 20
4795829.95
 30
0.0
 11
352959.78
 21
4795834.72
 31
0.0
  0
LINE
  5
2D7
  8
PS02-CO
 10
352937.81
 20
4795824.04
 30
0.0
 11
352950.23
 21
4795829.94
 31
0.0
  0
LINE
  5
2D8
  8
PS02-CO
 10
352926.7
 20
4795817.68
 30
0.0
 11
352937.87
 21
4795824.07
 31
0.0
  0
LINE
  5
2D9
  8
PS02-CO
 10
352921.24
 20
4795894.6
 30
0.0
 11
352925.35
 21
4795818.41
 31
0.0
  0
LINE
  5
2DA
  8
PS02-CO
 10
352924.38
 20
4795887.12
 30
0.0
 11
352923.03
 21
4795894.81
 31
0.0
  0
LINE
  5
2DB
  8
PS02-CO
 10
352928.69
 20
4795878.71
 30
0.0
 11
352924.29
 21
4795887.37
 31
0.0
  0
LINE
  5
2DC
  8
PS02-CO
 10
352946.7
 20
4795885.36
 30
0.0
 11
352927.61
 21
4795879.16
 31
0.0
  0
LINE
  5
2DD
  8
PS02-CO
 10
352952.37
 20
4795874.62
 30
0.0
 11
352947.8
 21
4795884.87
 31
0.0
  0
TEXT
  5
2DE
  8
PS02-CO
 10
352956.17
 20
4795877.18
 30
0.0
 40
0.6
  1
9.58
 50
23.01
 72
     5
 11
352956.17
 21
4795877.18
 31
0.0
 73
     6
  0
TEXT
  5
2DF
  8
PS02-CO
 10
352966.14
 20
4795879.65
 30
0.0
 40
0.6
  1
11.09
 50
2.53
 72
     5
 11
352966.14
 21
4795879.65
 31
0.0
 73
     6
  0
TEXT
  5
2E0
  8
PS02-CO
 10
352976.01
 20
4795872.97
 30
0.0
 40
0.6
  1
15.80
 50
283.2
 72
     5
 11
352976.01
 21
4795872.97
 31
0.0
 73
     6
  0
TEXT
  5
2E1
  8
PS02-CO
 10
352972.41
 20
4795860.63
 30
0.0
 40
0.6
  1
10.79
 50
24.13
 72
     5
 11
352972.41
 21
4795860.63
 31
0.0
 73
     6
  0
TEXT
  5
2E2
  8
PS02-CO
 10
352962.91
 20
4795856.86
 30
0.0
 40
0.6
  1
9.98
 50
19.93
 72
     5
 11
352962.91
 21
4795856.86
 31
0.0
 73
     6
  0
TEXT
  5
2E3
  8
PS02-CO
 10
352964.03
 20
4795848.98
 30
0.0
 40
0.6
  1
20.17
 50
295.14
 72
     5
 11
352964.03
 21
4795848.98
 31
0.0
 73
     6
  0
TEXT
  5
2E4
  8
PS02-CO
 10
352963.47
 20
4795835.98
 30
0.0
 40
0.6
  1
9.84
 50
19.13
 72
     5
 11
352963.47
 21
4795835.98
 31
0.0
 73
     6
  0
TEXT
  5
2E5
  8
PS02-CO
 10
352954.01
 20
4795831.82
 30
0.0
 40
0.6
  1
10.67
 50
26.83
 72
     5
 11
352954.01
 21
4795831.82
 31
0.0
 73
     6
  0
TEXT
  5
2E6
  8
PS02-CO
 10
352943.0
 20
4795826.5
 30
0.0
 40
0.6
  1
13.75
 50
25.74
 72
     5
 11
352943.0
 21
4795826.5
 31
0.0
 73
     6
  0
TEXT
  5
2E7
  8
PS02-CO
 10
352931.31
 20
4795820.31
 30
0.0
 40
0.6
  1
12.87
 50
29.8
 72
     5
 11
352931.31
 21
4795820.31
 31
0.0
 73
     6
  0
TEXT
  5
2E8
  8
PS02-CO
 10
352923.29
 20
4795857.63
 30
0.0
 40
0.6
  1
76.29
 50
270.13
 72
     5
 11
352923.29
 21
4795857.63
 31
0.0
 73
     6
  0
TEXT
  5
2E9
  8
PS02-CO
 10
352923.68
 20
4795891.86
 30
0.0
 40
0.6
  1
7.81
 50
271.36
 72
     5
 11
352923.68
 21
4795891.86
 31
0.0
 73
     6
  0
TEXT
  5
2EA
  8
PS02-CO
 10
352926.13
 20
4795883.86
 30
0.0
 40
0.6
  1
9.71
 50
293.58
 72
     5
 11
352926.13
 21
4795883.86
 31
0.0
 73
     6
  0
TEXT
  5
2EB
  8
PS02-CO
 10
352936.09
 20
4795881.91
 30
0.0
 40
0.6
  1
20.07
 50
18.06
 72
     5
 11
352936.09
 21
4795881.91
 31
0.0
 73
     6
  0
TEXT
  5
2EC
  8
PS02-CO
 10
352949.67
 20
4795880.78
 30
0.0
 40
0.6
  1
11.22
 50
291.96
 72
     5
 11
352949.67
 21
4795880.78
 31
0.0
 73
     6
  0
TEXT
  5
2ED
  8
PS03-AU
 10
352937.87
 20
4795872.53
 30
0.0
 40
0.4
  1
V.01
 72
     1
 11
352937.87
 21
4795872.53
 31
0.0
 73
     3
  0
TEXT
  5
2EE
  8
PS03-AS
 10
352937.87
 20
4795872.53
 30
0.0
 40
0.4
  1
77
 72
     1
 11
352937.87
 21
4795872.53
 31
0.0
 73
     1
  0
TEXT
  5
2EF
  8
PS03-AU
 10
352939.12
 20
4795859.46
 30
0.0
 40
0.4
  1
V.03
 72
     1
 11
352939.12
 21
4795859.46
 31
0.0
 73
     3
  0
TEXT
  5
2F0
  8
PS03-AS
 10
352939.12
 20
4795859.46
 30
0.0
 40
0.4
  1
77
 72
     1
 11
352939.12
 21
4795859.46
 31
0.0
 73
     1
  0
TEXT
  5
2F1
  8
PS03-AU
 10
352941.72
 20
4795846.14
 30
0.0
 40
0.4
  1
V.05
 72
     1
 11
352941.72
 21
4795846.14
 31
0.0
 73
     3
  0
TEXT
  5
2F2
  8
PS03-AS
 10
352941.72
 20
4795846.14
 30
0.0
 40
0.4
  1
77
 72
     1
 11
352941.72
 21
4795846.14
 31
0.0
 73
     1
  0
TEXT
  5
2F3
  8
PS03-AU
 10
352940.74
 20
4795832.49
 30
0.0
 40
0.4
  1
V.07
 72
     1
 11
352940.74
 21
4795832.49
 31
0.0
 73
     3
  0
TEXT
  5
2F4
  8
PS03-AS
 10
352940.74
 20
4795832.49
 30
0.0
 40
0.4
  1
77
 72
     1
 11
352940.74
 21
4795832.49
 31
0.0
 73
     1
  0
TEXT
  5
2F5
  8
PS03-AU
 10
352940.3
 20
4795866.88
 30
0.0
 40
0.4
  1
V.02
 72
     1
 11
352940.3
 21
4795866.88
 31
0.0
 73
     3
  0
TEXT
  5
2F6
  8
PS03-AS
 10
352940.3
 20
4795866.88
 30
0.0
 40
0.4
  1
77
 72
     1
 11
352940.3
 21
4795866.88
 31
0.0
 73
     1
  0
TEXT
  5
2F7
  8
PS03-AU
 10
352941.26
 20
4795853.59
 30
0.0
 40
0.4
  1
V.04
 72
     1
 11
352941.26
 21
4795853.59
 31
0.0
 73
     3
  0
TEXT
  5
2F8
  8
PS03-AS
 10
352941.26
 20
4795853.59
 30
0.0
 40
0.4
  1
77
 72
     1
 11
352941.26
 21
4795853.59
 31
0.0
 73
     1
  0
TEXT
  5
2F9
  8
PS03-AU
 10
352942.72
 20
4795840.37
 30
0.0
 40
0.4
  1
V.06
 72
     1
 11
352942.72
 21
4795840.37
 31
0.0
 73
     3
  0
TEXT
  5
2FA
  8
PS03-AS
 10
352942.72
 20
4795840.37
 30
0.0
 40
0.4
  1
77
 72
     1
 11
352942.72
 21
4795840.37
 31
0.0
 73
     1
  0
POLYLINE
  5
2FB
  8
PS03-LI
 66
     1
 10
0.0
 20
0.0
 30
0.0
  0
VERTEX
  5
4C4
  8
PS03-LI
 10
352943.9385
 20
4795871.5555
 30
0.0
  0
VERTEX
  5
4C5
  8
PS03-LI
 10
352943.0385
 20
4795871.1355
 30
0.0
  0
VERTEX
  5
4C6
  8
PS03-LI
 10
352934.2585
 20
4795866.9955
 30
0.0
  0
VERTEX
  5
4C7
  8
PS03-LI
 10
352932.7185
 20
4795866.2655
 30
0.0
  0
SEQEND
  5
4C3
  8
PS03-LI
  0
POLYLINE
  5
301
  8
PS03-LP
 66
     1
 10
0.0
 20
0.0
 30
0.0
  0
VERTEX
  5
4C9
  8
PS03-LP
 10
352932.7185
 20
4795866.2655
 30
0.0
  0
VERTEX
  5
4CA
  8
PS03-LP
 10
352930.0785
 20
4795871.8755
 30
0.0
  0
VERTEX
  5
4CB
  8
PS03-LP
 10
352941.2985
 20
4795877.1655
 30
0.0
  0
VERTEX
  5
4CC
  8
PS03-LP
 10
352943.9385
 20
4795871.5555
 30
0.0
  0
SEQEND
  5
4C8
  8
PS03-LP
  0
LINE
  5
307
  8
PS03-LP
 10
352935.3685
 20
4795860.6655
 30
0.0
 11
352932.7185
 21
4795866.2655
 31
0.0
  0
POLYLINE
  5
308
  8
PS03-LI
 66
     1
 10
0.0
 20
0.0
 30
0.0
  0
VERTEX
  5
4CE
  8
PS03-LI
 10
352944.6985
 20
4795858.205
 30
0.0
  0
VERTEX
  5
4CF
  8
PS03-LI
 10
352935.0285
 20
4795853.645
 30
0.0
  0
VERTEX
  5
4D0
  8
PS03-LI
 10
352933.488
 20
4795852.925
 30
0.0
  0
SEQEND
  5
4CD
  8
PS03-LI
  0
POLYLINE
  5
30D
  8
PS03-LP
 66
     1
 10
0.0
 20
0.0
 30
0.0
  0
VERTEX
  5
4D2
  8
PS03-LP
 10
352933.488
 20
4795852.925
 30
0.0
  0
VERTEX
  5
4D3
  8
PS03-LP
 10
352930.838
 20
4795858.5255
 30
0.0
  0
VERTEX
  5
4D4
  8
PS03-LP
 10
352935.3685
 20
4795860.6655
 30
0.0
  0
SEQEND
  5
4D1
  8
PS03-LP
  0
LINE
  5
312
  8
PS03-LP
 10
352936.1285
 20
4795847.315
 30
0.0
 11
352933.488
 21
4795852.925
 31
0.0
  0
POLYLINE
  5
313
  8
PS03-LI
 66
     1
 10
0.0
 20
0.0
 30
0.0
  0
VERTEX
  5
4D6
  8
PS03-LI
 10
352945.4685
 20
4795844.865
 30
0.0
  0
VERTEX
  5
4D7
  8
PS03-LI
 10
352935.788
 20
4795840.295
 30
0.0
  0
VERTEX
  5
4D8
  8
PS03-LI
 10
352934.258
 20
4795839.575
 30
0.0
  0
SEQEND
  5
4D5
  8
PS03-LI
  0
POLYLINE
  5
318
  8
PS03-LP
 66
     1
 10
0.0
 20
0.0
 30
0.0
  0
VERTEX
  5
4DA
  8
PS03-LP
 10
352934.258
 20
4795839.575
 30
0.0
  0
VERTEX
  5
4DB
  8
PS03-LP
 10
352931.608
 20
4795845.185
 30
0.0
  0
VERTEX
  5
4DC
  8
PS03-LP
 10
352936.1285
 20
4795847.315
 30
0.0
  0
SEQEND
  5
4D9
  8
PS03-LP
  0
LINE
  5
31D
  8
PS03-LP
 10
352936.898
 20
4795833.965
 30
0.0
 11
352934.258
 21
4795839.575
 31
0.0
  0
LINE
  5
31E
  8
PS03-LI
 10
352935.3685
 20
4795860.6655
 30
0.0
 11
352936.8985
 21
4795861.3855
 31
0.0
  0
LINE
  5
31F
  8
PS03-LI
 10
352936.1285
 20
4795847.315
 30
0.0
 11
352937.6685
 21
4795848.035
 31
0.0
  0
LINE
  5
320
  8
PS03-LI
 10
352936.898
 20
4795833.965
 30
0.0
 11
352938.438
 21
4795834.695
 31
0.0
  0
POLYLINE
  5
321
  8
PS03-LP
 66
     1
 10
0.0
 20
0.0
 30
0.0
  0
VERTEX
  5
4DE
  8
PS03-LP
 10
352943.5885
 20
4795837.125
 30
0.0
  0
VERTEX
  5
4DF
  8
PS03-LP
 10
352946.2385
 20
4795831.515
 30
0.0
  0
VERTEX
  5
4E0
  8
PS03-LP
 10
352941.7185
 20
4795829.385
 30
0.0
  0
VERTEX
  5
4E1
  8
PS03-LP
 10
352935.018
 20
4795826.225
 30
0.0
  0
VERTEX
  5
4E2
  8
PS03-LP
 10
352932.378
 20
4795831.835
 30
0.0
  0
VERTEX
  5
4E3
  8
PS03-LP
 10
352933.918
 20
4795832.565
 30
0.0
  0
VERTEX
  5
4E4
  8
PS03-LP
 10
352936.898
 20
4795833.965
 30
0.0
  0
SEQEND
  5
4DD
  8
PS03-LP
  0
LINE
  5
32A
  8
PS03-LI
 10
352936.8985
 20
4795861.3855
 30
0.0
 11
352942.0585
 21
4795863.8155
 31
0.0
  0
LINE
  5
32B
  8
PS03-LI
 10
352937.6685
 20
4795848.035
 30
0.0
 11
352942.8285
 21
4795850.465
 31
0.0
  0
LINE
  5
32C
  8
PS03-LI
 10
352938.438
 20
4795834.695
 30
0.0
 11
352943.5885
 21
4795837.125
 31
0.0
  0
LINE
  5
32D
  8
PS03-LP
 10
352946.5785
 20
4795865.9455
 30
0.0
 11
352942.0585
 21
4795863.8155
 31
0.0
  0
LINE
  5
32E
  8
PS03-LP
 10
352942.0585
 20
4795863.8155
 30
0.0
 11
352944.6985
 21
4795858.205
 31
0.0
  0
LINE
  5
32F
  8
PS03-LP
 10
352947.3485
 20
4795852.605
 30
0.0
 11
352942.8285
 21
4795850.465
 31
0.0
  0
LINE
  5
330
  8
PS03-LP
 10
352942.8285
 20
4795850.465
 30
0.0
 11
352945.4685
 21
4795844.865
 31
0.0
  0
LINE
  5
331
  8
PS03-LP
 10
352948.1185
 20
4795839.255
 30
0.0
 11
352943.5885
 21
4795837.125
 31
0.0
  0
LINE
  5
332
  8
PS03-LP
 10
352943.9385
 20
4795871.5555
 30
0.0
 11
352946.5785
 21
4795865.9455
 31
0.0
  0
LINE
  5
333
  8
PS03-LP
 10
352944.6985
 20
4795858.205
 30
0.0
 11
352947.3485
 21
4795852.605
 31
0.0
  0
LINE
  5
334
  8
PS03-LP
 10
352945.4685
 20
4795844.865
 30
0.0
 11
352948.1185
 21
4795839.255
 31
0.0
  0
LINE
  5
335
  8
PS03-CO
 10
352934.55
 20
4795860.28
 30
0.0
 11
352931.91
 21
4795865.89
 31
0.0
  0
LINE
  5
336
  8
PS03-CO
 10
352930.46
 20
4795859.35
 30
0.0
 11
352934.98
 21
4795861.48
 31
0.0
  0
LINE
  5
337
  8
PS03-CO
 10
352935.32
 20
4795846.93
 30
0.0
 11
352930.03
 21
4795858.15
 31
0.0
  0
LINE
  5
338
  8
PS03-CO
 10
352931.23
 20
4795846.0
 30
0.0
 11
352935.75
 21
4795848.13
 31
0.0
  0
LINE
  5
339
  8
PS03-CO
 10
352936.08
 20
4795833.58
 30
0.0
 11
352930.8
 21
4795844.8
 31
0.0
  0
LINE
  5
33A
  8
PS03-CO
 10
352931.99
 20
4795832.64
 30
0.0
 11
352936.51
 21
4795834.78
 31
0.0
  0
LINE
  5
33B
  8
PS03-CO
 10
352934.21
 20
4795825.84
 30
0.0
 11
352931.56
 21
4795831.45
 31
0.0
  0
LINE
  5
33C
  8
PS03-CO
 10
352946.62
 20
4795830.7
 30
0.0
 11
352935.41
 21
4795825.41
 31
0.0
  0
LINE
  5
33D
  8
PS03-CO
 10
352944.41
 20
4795837.5
 30
0.0
 11
352947.05
 21
4795831.89
 31
0.0
  0
LINE
  5
33E
  8
PS03-CO
 10
352948.5
 20
4795838.43
 30
0.0
 11
352943.98
 21
4795836.3
 31
0.0
  0
LINE
  5
33F
  8
PS03-CO
 10
352943.64
 20
4795850.86
 30
0.0
 11
352948.93
 21
4795839.63
 31
0.0
  0
LINE
  5
340
  8
PS03-CO
 10
352947.73
 20
4795851.79
 30
0.0
 11
352943.21
 21
4795849.66
 31
0.0
  0
LINE
  5
341
  8
PS03-CO
 10
352942.87
 20
4795864.21
 30
0.0
 11
352948.16
 21
4795852.99
 31
0.0
  0
LINE
  5
342
  8
PS03-CO
 10
352946.97
 20
4795865.14
 30
0.0
 11
352942.44
 21
4795863.01
 31
0.0
  0
LINE
  5
343
  8
PS03-CO
 10
352942.11
 20
4795877.55
 30
0.0
 11
352947.4
 21
4795866.34
 31
0.0
  0
LINE
  5
344
  8
PS03-CO
 10
352929.7
 20
4795872.7
 30
0.0
 11
352940.91
 21
4795877.98
 31
0.0
  0
LINE
  5
345
  8
PS03-CO
 10
352931.91
 20
4795865.89
 30
0.0
 11
352929.27
 21
4795871.5
 31
0.0
  0
TEXT
  5
346
  8
PS03-CO
 10
352932.89
 20
4795863.92
 30
0.0
 40
0.6
  1
6.20
 50
292.61
 72
     5
 11
352932.89
 21
4795863.92
 31
0.0
 73
     6
  0
TEXT
  5
347
  8
PS03-CO
 10
352931.91
 20
4795860.03
 30
0.0
 40
0.6
  1
5.00
 50
25.58
 72
     5
 11
352931.91
 21
4795860.03
 31
0.0
 73
     6
  0
TEXT
  5
348
  8
PS03-CO
 10
352932.24
 20
4795853.58
 30
0.0
 40
0.6
  1
12.40
 50
292.61
 72
     5
 11
352932.24
 21
4795853.58
 31
0.0
 73
     6
  0
TEXT
  5
349
  8
PS03-CO
 10
352932.68
 20
4795846.68
 30
0.0
 40
0.6
  1
5.00
 50
25.58
 72
     5
 11
352932.68
 21
4795846.68
 31
0.0
 73
     6
  0
TEXT
  5
34A
  8
PS03-CO
 10
352933.01
 20
4795840.23
 30
0.0
 40
0.6
  1
12.40
 50
292.61
 72
     5
 11
352933.01
 21
4795840.23
 31
0.0
 73
     6
  0
TEXT
  5
34B
  8
PS03-CO
 10
352933.44
 20
4795833.32
 30
0.0
 40
0.6
  1
5.00
 50
25.58
 72
     5
 11
352933.44
 21
4795833.32
 31
0.0
 73
     6
  0
TEXT
  5
34C
  8
PS03-CO
 10
352932.54
 20
4795829.47
 30
0.0
 40
0.6
  1
6.20
 50
292.61
 72
     5
 11
352932.54
 21
4795829.47
 31
0.0
 73
     6
  0
TEXT
  5
34D
  8
PS03-CO
 10
352940.0
 20
4795827.57
 30
0.0
 40
0.6
  1
12.40
 50
25.58
 72
     5
 11
352940.0
 21
4795827.57
 31
0.0
 73
     6
  0
TEXT
  5
34E
  8
PS03-CO
 10
352945.38
 20
4795835.53
 30
0.0
 40
0.6
  1
6.20
 50
292.61
 72
     5
 11
352945.38
 21
4795835.53
 31
0.0
 73
     6
  0
TEXT
  5
34F
  8
PS03-CO
 10
352945.43
 20
4795836.98
 30
0.0
 40
0.6
  1
5.00
 50
25.58
 72
     5
 11
352945.43
 21
4795836.98
 31
0.0
 73
     6
  0
TEXT
  5
350
  8
PS03-CO
 10
352945.85
 20
4795846.29
 30
0.0
 40
0.6
  1
12.40
 50
292.61
 72
     5
 11
352945.85
 21
4795846.29
 31
0.0
 73
     6
  0
TEXT
  5
351
  8
PS03-CO
 10
352944.66
 20
4795850.34
 30
0.0
 40
0.6
  1
5.00
 50
25.58
 72
     5
 11
352944.66
 21
4795850.34
 31
0.0
 73
     6
  0
TEXT
  5
352
  8
PS03-CO
 10
352945.09
 20
4795859.64
 30
0.0
 40
0.6
  1
12.40
 50
292.61
 72
     5
 11
352945.09
 21
4795859.64
 31
0.0
 73
     6
  0
TEXT
  5
353
  8
PS03-CO
 10
352943.89
 20
4795863.69
 30
0.0
 40
0.6
  1
5.00
 50
25.58
 72
     5
 11
352943.89
 21
4795863.69
 31
0.0
 73
     6
  0
TEXT
  5
354
  8
PS03-CO
 10
352944.32
 20
4795872.98
 30
0.0
 40
0.6
  1
12.40
 50
292.61
 72
     5
 11
352944.32
 21
4795872.98
 31
0.0
 73
     6
  0
TEXT
  5
355
  8
PS03-CO
 10
352934.29
 20
4795874.85
 30
0.0
 40
0.6
  1
12.40
 50
25.58
 72
     5
 11
352934.29
 21
4795874.85
 31
0.0
 73
     6
  0
TEXT
  5
356
  8
PS03-CO
 10
352930.24
 20
4795869.53
 30
0.0
 40
0.6
  1
6.20
 50
292.61
 72
     5
 11
352930.24
 21
4795869.53
 31
0.0
 73
     6
  0
ENDSEC
  0
EOF
