  0
SECTION
  2
ENTITIES
  0
TEXT
  8
PG-AA
 10
 348940.059758789
 20
 4798767.08184541
 40
.4
 50
0.0
  1
II
 72
 1 
 73
 3 
 11
 348940.059758789
 21
 4798767.08184541
  0
TEXT
  8
PG-AS
 10
 348940.059758789
 20
 4798767.08184541
 40
.4
 50
0.0
  1
67
 72
 1 
 73
 1 
 11
 348940.059758789
 21
 4798767.08184541
  0
POLYLINE
  8
PG-LP
 66
1
  0
VERTEX
 8
PG-LP
 10
 348944.279838662
 20
 4798763.61176875
  0
VERTEX
 8
PG-LP
 10
 348944.27983688
 20
 4798763.35176506
  0
VERTEX
 8
PG-LP
 10
 348935.989632899
 20
 4798763.30181827
  0
VERTEX
 8
PG-LP
 10
 348933.659575047
 20
 4798763.21183215
  0
VERTEX
 8
PG-LP
 10
 348933.639578258
 20
 4798763.75183994
  0
VERTEX
 8
PG-LP
 10
 348933.629580549
 20
 4798764.12184525
  0
VERTEX
 8
PG-LP
 10
 348938.809756738
 20
 4798771.26191283
  0
VERTEX
 8
PG-LP
 10
 348944.2798922
 20
 4798771.42187952
  0
VERTEX
 8
PG-LP
 10
 348944.279838662
 20
 4798763.61176875
  0
SEQEND
  8
0
  0
POLYLINE
  8
PG-LF
 66
1
  0
VERTEX
 8
PG-LF
 10
 348946.589907265
 20
 4798765.34177826
  0
VERTEX
 8
PG-LF
 10
 348946.599909567
 20
 4798765.64178245
  0
VERTEX
 8
PG-LF
 10
 348947.199924168
 20
 4798765.62177826
  0
VERTEX
 8
PG-LF
 10
 348947.20992647
 20
 4798765.92178245
  0
VERTEX
 8
PG-LF
 10
 348946.609911869
 20
 4798765.94178664
  0
VERTEX
 8
PG-LF
 10
 348946.619914171
 20
 4798766.24179083
  0
VERTEX
 8
PG-LF
 10
 348946.159899855
 20
 4798765.80178758
  0
VERTEX
 8
PG-LF
 10
 348946.589907265
 20
 4798765.34177826
  0
SEQEND
  8
0
  0
POLYLINE
  8
PG-LF
 66
1
  0
VERTEX
 8
PG-LF
 10
 348946.589907265
 20
 4798765.34177826
  0
VERTEX
 8
PG-LF
 10
 348946.599909567
 20
 4798765.64178245
  0
VERTEX
 8
PG-LF
 10
 348947.199924168
 20
 4798765.62177826
  0
VERTEX
 8
PG-LF
 10
 348947.20992647
 20
 4798765.92178245
  0
VERTEX
 8
PG-LF
 10
 348946.609911869
 20
 4798765.94178664
  0
VERTEX
 8
PG-LF
 10
 348946.619914171
 20
 4798766.24179083
  0
VERTEX
 8
PG-LF
 10
 348946.159899855
 20
 4798765.80178758
  0
VERTEX
 8
PG-LF
 10
 348946.589907265
 20
 4798765.34177826
  0
SEQEND
  8
0
  0
TEXT
  8
PG-CO
 10
 348941.269818948
 20
 4798771.52190052
 40
.2
 50
1.0
  1
5.47
 72
 3 
 73
 6 
 11
 348941.269818948
 21
 4798771.52190052
  0
TEXT
  8
PG-CO
 10
 348944.479857217
 20
 4798765.60179567
 40
.2
 50
90.0
  1
11.06
 72
 3 
 73
 6 
 11
 348944.479857217
 21
 4798765.60179567
  0
TEXT
  8
PG-CO
 10
 348936.499660714
 20
 4798765.53184658
 40
.2
 50
70.0
  1
11.56
 72
 3 
 73
 6 
 11
 348936.499660714
 21
 4798765.53184658
  0
TEXT
  8
PG-CO
 10
 348939.359694087
 20
 4798760.15175167
 40
.2
 50
0.0
  1
9.33
 72
 3 
 73
 6 
 11
 348939.359694087
 21
 4798760.15175167
  0
TEXT
  8
PS01-AU
 10
 348940.799776829
 20
 4798767.06184031
 40
.4
 50
0.0
  1
AAL.01
 72
 1 
 73
 3 
 11
 348940.799776829
 21
 4798767.06184031
  0
TEXT
  8
PS01-AS
 10
 348940.799776829
 20
 4798767.06184031
 40
.4
 50
0.0
  1
67
 72
 1 
 73
 1 
 11
 348940.799776829
 21
 4798767.06184031
  0
POLYLINE
  8
PS01-LP
 66
1
  0
VERTEX
 8
PS01-LP
 10
 348938.809756738
 20
 4798771.26191283
  0
VERTEX
 8
PS01-LP
 10
 348944.2798922
 20
 4798771.42187952
  0
VERTEX
 8
PS01-LP
 10
 348944.279838662
 20
 4798763.61176875
  0
VERTEX
 8
PS01-LP
 10
 348944.27983688
 20
 4798763.35176506
  0
VERTEX
 8
PS01-LP
 10
 348935.989632899
 20
 4798763.30181827
  0
VERTEX
 8
PS01-LP
 10
 348933.659575047
 20
 4798763.21183215
  0
VERTEX
 8
PS01-LP
 10
 348933.639578258
 20
 4798763.75183994
  0
VERTEX
 8
PS01-LP
 10
 348933.629580549
 20
 4798764.12184525
  0
VERTEX
 8
PS01-LP
 10
 348938.809756738
 20
 4798771.26191283
  0
SEQEND
  8
0
  0
TEXT
  8
PS02-AU
 10
 348940.799776829
 20
 4798767.06184031
 40
.4
 50
0.0
  1
AAL.01
 72
 1 
 73
 3 
 11
 348940.799776829
 21
 4798767.06184031
  0
TEXT
  8
PS02-AS
 10
 348940.799776829
 20
 4798767.06184031
 40
.4
 50
0.0
  1
67
 72
 1 
 73
 1 
 11
 348940.799776829
 21
 4798767.06184031
  0
POLYLINE
  8
PS02-LP
 66
1
  0
VERTEX
 8
PS02-LP
 10
 348938.809756738
 20
 4798771.26191283
  0
VERTEX
 8
PS02-LP
 10
 348944.2798922
 20
 4798771.42187952
  0
VERTEX
 8
PS02-LP
 10
 348944.279838662
 20
 4798763.61176875
  0
VERTEX
 8
PS02-LP
 10
 348944.27983688
 20
 4798763.35176506
  0
VERTEX
 8
PS02-LP
 10
 348935.989632899
 20
 4798763.30181827
  0
VERTEX
 8
PS02-LP
 10
 348933.659575047
 20
 4798763.21183215
  0
VERTEX
 8
PS02-LP
 10
 348933.639578258
 20
 4798763.75183994
  0
VERTEX
 8
PS02-LP
 10
 348933.629580549
 20
 4798764.12184525
  0
VERTEX
 8
PS02-LP
 10
 348938.809756738
 20
 4798771.26191283
  0
SEQEND
  8
0
  0
POLYLINE
  8
PS02-LF
 66
1
  0
VERTEX
 8
PS02-LF
 10
 348946.589907333
 20
 4798765.3517784
  0
VERTEX
 8
PS02-LF
 10
 348946.599909635
 20
 4798765.65178259
  0
VERTEX
 8
PS02-LF
 10
 348947.199924237
 20
 4798765.6317784
  0
VERTEX
 8
PS02-LF
 10
 348947.209926539
 20
 4798765.93178259
  0
VERTEX
 8
PS02-LF
 10
 348946.609911937
 20
 4798765.95178678
  0
VERTEX
 8
PS02-LF
 10
 348946.61991424
 20
 4798766.25179097
  0
VERTEX
 8
PS02-LF
 10
 348946.159899924
 20
 4798765.81178772
  0
VERTEX
 8
PS02-LF
 10
 348946.589907333
 20
 4798765.3517784
  0
SEQEND
  8
0
  0
ENDSEC
  0
EOF
